<?xml version="1.0" encoding="UTF-8"?>
<svg id="Fav" xmlns="http://www.w3.org/2000/svg" viewBox="0 0 27 32">
  <defs>
    <style>
      .cls-1 {
        fill: #006cff;
      }

      .cls-2 {
        fill: #023fff;
      }

      .cls-3 {
        fill: #fff;
      }

      .cls-4 {
        fill: #fb0;
      }

      .cls-5 {
        fill: #0500bf;
      }

      .cls-6 {
        fill: #f2f2f2;
      }

      .cls-7 {
        fill: #eeb715;
      }

      .cls-8 {
        fill: none;
        stroke: #0500bf;
        stroke-miterlimit: 10;
        stroke-width: .14px;
      }
    </style>
  </defs>
  <circle class="cls-6" cx="13.5" cy="16" r="13.5"/>
  <path class="cls-8" d="M18.92,8.49l-4.53,2.58M15.45,6.69l-6,3.5M11.6,10.95l.89-.51v-1.95M9.6,24.11l5.11-3.45M12.76,25.88l5.15-3.43M15.6,22.01l-.74.49.12,1.9M10.34,8.49l-3,1.66M6.97,9.95c-.24,0-.43.18-.44.42s.18.43.42.44.43-.18.44-.42-.18-.43-.42-.44ZM10.73,7.85c-.24,0-.43.18-.44.42s.18.43.42.44.43-.18.44-.42-.18-.43-.42-.44Z"/>
  <path class="cls-2" d="M13.5,2.5C6.05,2.5,0,8.55,0,16s6.05,13.5,13.5,13.5,13.5-6.05,13.5-13.5S20.96,2.5,13.5,2.5ZM24.35,9.92c-.01.08.02.16-.05.23,0,0,0,.03,0,.05-.02.32-.03.64-.05.96,0,.11-.03.22-.05.33-.02.1.04.21-.04.31-.03.03-.01.11,0,.17.04.36-.08.72-.05,1.09-.08.16-.05.34-.05.51,0,.11-.07.21-.06.33.01.11.04.23-.04.33,0,0,0,.03,0,.05,0,.19.02.38-.05.56.04.32-.07.64-.05.96,0,.13-.07.25-.05.38.02.13.03.28,0,.4-.05.16-.03.32-.04.48,0,.09-.04.17-.05.26,0,.08.02.16-.05.23-.02.02,0,.06,0,.1,0,.1,0,.19-.05.28-.08.14-.06.31-.09.46-.04.14-.08.29-.11.43-.04.2-.11.39-.16.59-.06.19-.11.39-.2.57-.18.4-.31.81-.53,1.19-.17.29-.3.6-.5.88-.13.18-.24.37-.36.55-.12.19-.26.36-.4.54-.21.29-.46.55-.7.82-.11.12-.21.25-.33.36-.3.27-.59.55-.9.8-.49.39-1.02.73-1.54,1.08-.13.09-.25.19-.39.26-.15.07-.27.2-.41.29-.13.09-.27.16-.4.25-.75.5-1.49,1.03-2.26,1.51-.2.12-.38.27-.56.41-.04.03-.08.06-.12.1h-.4c-.46-.38-.97-.66-1.45-1-.29-.21-.59-.4-.88-.6-.43-.29-.85-.57-1.28-.86-.3-.2-.58-.41-.88-.6-.4-.26-.78-.55-1.17-.82-.12-.08-.22-.19-.33-.29-.26-.22-.51-.45-.74-.69-.27-.28-.53-.56-.76-.87-.31-.4-.59-.81-.87-1.22-.09-.13-.16-.29-.23-.43-.1-.18-.2-.35-.29-.53-.18-.39-.37-.78-.51-1.2-.07-.2-.15-.39-.21-.59-.07-.22-.12-.45-.19-.68-.03-.09-.04-.18-.05-.28,0-.09-.05-.18-.08-.27-.03-.09.03-.2-.06-.28-.02-.18-.05-.35-.05-.53,0-.25-.09-.49-.05-.73-.09-.14-.04-.29-.05-.43,0-.11-.08-.21-.06-.33.02-.11.03-.23,0-.32-.06-.18-.03-.36-.05-.53,0-.1-.04-.2-.05-.31,0-.11.03-.23,0-.32-.06-.16-.04-.32-.04-.48,0-.13-.07-.25-.06-.38.01-.12.04-.25-.04-.36,0,0,0-.02,0-.02-.02-.3-.05-.61-.04-.91,0-.13-.05-.23-.06-.36,0-.12.03-.24-.04-.36-.04-.08,0-.2,0-.3,0-.33-.09-.65-.05-.98-.11-.16-.02-.36-.09-.54-.07-.16.06-.34.25-.45.36-.2.72-.4,1.08-.6.34-.19.69-.36,1.03-.56.33-.19.67-.37,1-.55.34-.18.67-.37,1-.55.33-.18.67-.37,1-.55.33-.18.67-.37,1-.55.34-.19.69-.37,1.02-.56.32-.18.64-.36.96-.54.35-.19.7-.38,1.04-.57.33-.18.66-.36.98-.55.15-.09.3-.16.46-.25h.25c.2.12.4.24.6.35.3.16.6.33.9.49.22.12.43.25.65.36.27.14.54.28.8.45.08.06.18.08.27.13.39.21.78.42,1.17.64.33.18.65.37.98.55.34.19.69.37,1.03.55.34.18.67.37,1,.55.33.18.67.37,1,.55.34.19.69.37,1.02.56.32.18.65.34.96.54.13.09.27.18.39.26-.01.14.08.24.05.36-.02.08-.04.17-.05.26ZM24.35,9.31c-.12-.08-.25-.17-.39-.26-.31-.2-.64-.35-.96-.54-.34-.19-.68-.37-1.02-.56-.33-.19-.67-.37-1-.55-.33-.18-.67-.37-1-.55-.34-.19-.69-.37-1.03-.55-.33-.18-.65-.37-.98-.55-.39-.21-.78-.43-1.17-.64-.09-.05-.19-.07-.27-.13-.25-.17-.52-.31-.8-.45-.22-.11-.44-.24-.65-.36-.3-.17-.6-.33-.9-.49-.21-.11-.41-.23-.6-.35h-.25c-.16.09-.31.17-.46.25-.33.19-.65.37-.98.55-.35.19-.7.38-1.04.57-.32.18-.64.36-.96.54-.34.19-.68.37-1.02.56-.34.18-.67.37-1,.55-.33.18-.67.37-1,.55-.34.18-.67.37-1,.55-.34.18-.67.36-1,.55-.34.19-.68.37-1.03.56-.36.2-.72.4-1.08.6-.19.1-.32.29-.25.45.08.18-.02.38.09.54-.04.33.05.66.05.98,0,.1-.03.22,0,.3.07.12.03.24.04.36,0,.12.06.23.06.36,0,.3.03.61.04.91,0,0,0,.02,0,.02.08.11.06.24.04.36-.02.14.05.25.06.38,0,.16-.02.32.04.48.04.1,0,.22,0,.32,0,.1.04.2.05.31.02.18-.02.36.05.53.03.1.02.22,0,.32-.02.12.05.22.06.33,0,.14-.04.3.05.43-.04.25.05.49.05.73,0,.18.03.35.05.53.09.08.03.19.06.28.03.09.08.17.08.27,0,.1.03.19.05.28.07.22.12.45.19.68.06.2.14.39.21.59.14.41.33.8.51,1.2.09.18.19.36.29.53.08.14.14.3.23.43.28.41.57.83.87,1.22.24.3.5.59.76.87.23.24.48.47.74.69.11.09.21.2.33.29.39.27.76.57,1.17.82.3.19.59.4.88.6.43.29.85.57,1.28.86.3.2.59.4.88.6.48.34,1,.63,1.45,1h.4s.08-.07.12-.1c.19-.14.37-.28.56-.41.77-.48,1.51-1.01,2.26-1.51.13-.09.27-.16.4-.25.14-.09.26-.22.41-.29.15-.07.26-.18.39-.26.52-.35,1.05-.69,1.54-1.08.31-.25.6-.53.9-.8.12-.11.22-.25.33-.36.25-.26.49-.53.7-.82.13-.18.27-.35.4-.54.12-.18.23-.38.36-.55.2-.28.34-.58.5-.88.21-.38.35-.79.53-1.19.08-.18.14-.38.2-.57.06-.19.12-.39.16-.59.03-.15.07-.29.11-.43.04-.15.01-.32.09-.46.05-.09.05-.19.05-.28,0-.03-.01-.08,0-.1.06-.07.04-.15.05-.23.01-.09.04-.17.05-.26.01-.16,0-.32.04-.48.04-.12.02-.27,0-.4-.02-.14.06-.25.05-.38-.02-.32.09-.64.05-.96.07-.18.05-.37.05-.56,0-.02,0-.04,0-.05.09-.1.06-.22.04-.33-.01-.12.05-.22.06-.33,0-.17-.03-.34.05-.51-.02-.36.09-.72.05-1.09,0-.06-.02-.14,0-.17.08-.1.03-.21.04-.31.02-.11.04-.22.05-.33.02-.32.04-.64.05-.96,0-.02,0-.04,0-.05.07-.07.04-.15.05-.23.01-.09.03-.17.05-.26.03-.12-.06-.22-.05-.36ZM23.5,10.16s0,.08,0,.12c-.02.3,0,.61-.06.91-.04.22-.02.44-.04.66,0,.1-.04.2-.05.31,0,.11.03.23,0,.32-.06.15-.03.29-.04.43-.01.11-.04.22-.05.33,0,.11.03.23,0,.32-.07.18-.03.36-.04.53-.01.12-.04.24-.05.36-.01.11.03.23-.05.33-.01.02,0,.05,0,.07.04.31-.03.62-.06.93-.02.24-.03.47-.04.71,0,.1-.07.19-.05.31.01.1-.01.2-.04.31-.04.14-.01.29-.05.43-.07.23-.05.47-.16.69.02.25-.1.48-.16.71-.05.19-.11.39-.19.57-.07.16-.14.33-.2.49-.11.32-.37.84-.53,1.11-.08.13-.14.26-.22.39-.21.36-.45.71-.71,1.04-.16.21-.33.4-.49.6-.23.29-.5.56-.77.8-.31.28-.63.55-.97.79-.27.19-.55.35-.8.55-.25.2-.52.36-.78.54-.25.17-.52.32-.77.51-.55.42-1.15.76-1.7,1.16-.31.22-.64.41-.94.65-.58-.39-1.15-.8-1.74-1.17-.4-.25-.77-.53-1.15-.79-.32-.22-.64-.44-.96-.66-.19-.13-.39-.24-.57-.38-.18-.14-.38-.26-.57-.4-.26-.2-.52-.41-.77-.62-.28-.23-.53-.48-.77-.74-.29-.32-.57-.65-.83-1.01-.17-.23-.33-.47-.49-.71-.27-.4-.5-.81-.69-1.25-.14-.33-.28-.65-.4-.99-.09-.27-.2-.54-.26-.82-.03-.15-.07-.29-.11-.43-.04-.14-.02-.29-.06-.43-.07-.24-.05-.49-.15-.72,0,0,0-.02,0-.02.04-.29-.08-.57-.05-.86.02-.21-.09-.42-.05-.63-.09-.14-.05-.29-.05-.43,0-.31-.09-.6-.05-.91-.09-.17-.04-.35-.05-.53,0-.13-.07-.25-.06-.38.01-.12.04-.25-.04-.36,0-.01,0-.03,0-.05.03-.28-.04-.56-.06-.83-.02-.24,0-.48-.05-.71-.03-.15-.01-.31-.05-.46-.05-.23-.02-.46-.05-.68-.03-.15-.04-.3-.04-.46.43-.22.84-.46,1.27-.69.32-.17.64-.36.96-.53.35-.19.7-.37,1.05-.57.32-.19.65-.37.98-.55.34-.19.69-.36,1.03-.56.37-.21.73-.41,1.11-.61.34-.18.67-.37,1-.55.33-.18.67-.37,1-.55.34-.18.68-.37,1.02-.56.23-.13.48-.23.68-.4.46.23.89.48,1.32.72.35.19.7.38,1.04.59.25.16.54.25.78.41.24.16.51.27.75.43.24.16.52.28.78.42.22.13.46.23.67.38.06.04.13.06.19.09.43.21.84.47,1.27.69.32.17.64.36.96.53.35.19.7.38,1.04.57.35.19.69.39,1.05.57.08.04.16.1.26.16-.02.13.04.27-.05.41ZM22.69,10.58c.01-.17-.07-.27-.21-.37-.2-.13-.42-.22-.61-.34-.32-.2-.66-.36-.98-.55-.34-.2-.7-.37-1.05-.57-.32-.18-.64-.36-.96-.53-.39-.22-.78-.43-1.17-.64-.09-.05-.19-.07-.27-.13-.35-.25-.74-.4-1.1-.63-.16-.11-.35-.17-.51-.27-.17-.11-.37-.15-.51-.29-.41-.18-.79-.44-1.19-.64-.08-.04-.16-.09-.25-.14-.17-.09-.34-.23-.56-.17-.27.15-.53.3-.79.45-.34.19-.69.36-1.03.56-.32.19-.66.36-.98.55-.34.2-.7.37-1.05.57-.32.18-.64.36-.96.53-.42.23-.84.47-1.27.69-.06.03-.13.05-.19.09-.21.15-.45.26-.67.38-.25.14-.51.27-.76.41-.29.16-.57.32-.86.49-.13.08-.28.13-.41.22-.09.06-.16.14-.17.25,0,.13-.03.28,0,.4.04.11.03.21.04.31.01.1.04.2.05.31.02.19,0,.37.04.56.04.23.03.47.05.71.02.28.1.55.06.83,0,.02,0,.04,0,.05.09.12.03.25.05.38.02.13.04.25.05.38.02.34.03.67.05,1.01,0,.02,0,.04,0,.05.09.1.05.22.04.33-.01.12.05.22.06.33,0,.22,0,.44.04.66.04.21.1.43.06.66,0,.04.01.08.02.11.04.13.09.27.12.4.03.15.08.31.09.47.02.17.09.32.14.47.12.42.29.83.49,1.23.16.33.32.66.53.96.14.2.28.41.41.61.19.3.42.57.65.83.43.48.9.92,1.41,1.32.08.06.16.13.25.19.52.32,1.01.68,1.51,1.02.39.26.78.51,1.16.79.48.35.98.66,1.47.99.18.12.36.22.58.16.02-.02.04-.05.07-.07.31-.21.62-.41.92-.62.39-.27.8-.52,1.18-.8.27-.2.56-.38.85-.57.3-.2.59-.4.89-.59.42-.29.85-.57,1.22-.92.36-.34.71-.67,1.02-1.05.18-.23.36-.45.53-.68.27-.35.48-.74.7-1.12.12-.2.24-.41.31-.62.04-.13.12-.24.16-.36.03-.13.09-.25.13-.37.08-.23.16-.47.22-.71.04-.17.1-.33.1-.51.15-.25.13-.53.19-.8.07-.32.05-.65.06-.98,0-.06-.02-.14,0-.17.09-.1.03-.21.05-.31.02-.1.04-.2.05-.31.02-.34.04-.69.05-1.03,0-.02,0-.04,0-.05.08-.1.04-.22.05-.33.01-.12.04-.24.05-.36.02-.19,0-.39.04-.58.05-.28.05-.57.06-.86,0-.25.09-.5.05-.76,0,0,0-.02,0-.02.09-.13.03-.27.05-.41.02-.14.04-.29.05-.43ZM21.83,11.17c0,.14-.04.27-.05.41,0,.14.03.29,0,.43-.04.15-.01.3-.05.43-.06.22-.01.44-.05.66-.04.21-.01.43-.05.63-.03.15-.03.29-.04.43-.01.1-.04.2-.05.31,0,.11.03.23,0,.32-.06.15-.03.29-.04.43-.02.24-.08.47-.05.71-.09.19-.02.39-.05.58-.04.27-.04.54-.13.8-.01.04-.02.08-.02.12,0,.16-.04.3-.09.44-.04.11.01.24-.06.35-.04.06-.06.14-.1.25.04.15-.08.28-.13.44-.18.52-.41,1.02-.68,1.5-.17.3-.35.58-.56.85-.23.3-.45.59-.71.87-.1.11-.18.23-.29.33-.4.33-.77.71-1.22.99-.24.15-.47.32-.71.48-.24.16-.48.3-.71.47-.6.45-1.23.83-1.85,1.25-.21.14-.41.3-.6.43-.15.09-.22-.07-.32-.08-.26-.25-.59-.41-.88-.62-.32-.23-.66-.43-.98-.67-.29-.22-.6-.41-.9-.61s-.6-.4-.91-.6c-.24-.16-.47-.34-.69-.53-.24-.21-.51-.39-.72-.63-.29-.34-.59-.66-.85-1.03-.2-.28-.39-.56-.57-.85-.15-.24-.26-.5-.38-.75-.14-.29-.25-.58-.36-.88-.08-.22-.14-.45-.21-.67,0,0-.02-.01-.02-.02,0-.18-.06-.36-.11-.53-.05-.17-.03-.35-.1-.51,0-.01,0-.03,0-.05.03-.28-.04-.56-.06-.83-.03-.26-.03-.52-.04-.78,0-.1-.07-.18-.05-.28.01-.08.03-.18-.04-.26-.01-.01,0-.05,0-.07.04-.31-.03-.62-.06-.93-.02-.23,0-.46-.05-.68-.04-.19-.04-.37-.04-.56,0-.11-.08-.21-.06-.33.02-.11.03-.23,0-.32-.05-.15,0-.32-.05-.46-.08-.25-.01-.51-.05-.76.14-.08.27-.16.4-.23.27-.15.53-.29.8-.44.3-.17.59-.35.9-.5.39-.19.76-.42,1.15-.62.32-.16.63-.34.94-.53.39-.23.8-.42,1.18-.67.25-.16.53-.27.78-.41.22-.12.43-.25.65-.38.06-.03.13-.06.19-.09.43-.22.83-.49,1.27-.69.05-.02.09-.07.14-.11.2.17.46.24.66.4.05.04.13.06.19.09.43.21.84.47,1.27.69.32.16.63.34.94.52.39.23.8.43,1.18.66.21.13.43.25.65.36.27.14.54.28.8.45.07.05.15.07.23.11.42.2.82.45,1.23.66.34.17.66.38,1.01.55.08.04.16.11.23.16,0,.14,0,.27,0,.39Z"/>
  <g>
    <path class="cls-4" d="M18.18,10.1c-.08-.09-.17-.15-.29-.14-.04,0-.08,0-.13,0-2.88,0-5.76,0-8.64,0-.23,0-.41.05-.51.31v.9h9.65v-.92c-.03-.06-.05-.11-.09-.15Z"/>
    <path class="cls-1" d="M7.91,11.46h.8v-.9c.1-.25.28-.31.51-.31,2.88,0,5.76,0,8.64,0,.04,0,.08,0,.13,0,.12,0,.22.05.29.14.04.04.06.09.09.15v.92h.8c0-.31-.01-.6,0-.89.01-.17-.1-.3-.12-.45-.19-.23-.35-.51-.68-.59-.05-.01-.1-.05-.15-.08-3.03,0-6.06,0-9.1,0-.25,0-.47.07-.67.2-.08.05-.15.13-.22.2-.22.22-.33.48-.33.79,0,.21,0,.42,0,.63,0,.06,0,.13,0,.19Z"/>
  </g>
  <g>
    <path class="cls-4" d="M8.7,21.69c.08.09.17.15.29.14.04,0,.08,0,.13,0,2.88,0,5.76,0,8.64,0,.23,0,.41-.05.51-.31v-.9h-9.65v.92c.03.06.05.11.09.15Z"/>
    <path class="cls-1" d="M18.27,20.62v.9c-.1.25-.28.31-.51.31-2.88,0-5.76,0-8.64,0-.04,0-.08,0-.13,0-.12,0-.22-.05-.29-.14-.04-.04-.06-.09-.09-.15v-.92h-.8c0,.28,0,.53,0,.79,0,.24.07.45.2.65.06.09.13.16.21.24.22.22.48.33.79.33,2.95,0,5.9,0,8.85,0,.25,0,.47-.07.67-.21.09-.06.17-.15.26-.23.14-.13.2-.3.26-.47.03-.08.03-.18.03-.26,0-.22,0-.44,0-.65,0-.06,0-.13,0-.19h-.8Z"/>
  </g>
  <g>
    <g>
      <rect class="cls-2" x="8.61" y="17.8" width="9.65" height="2.72"/>
      <rect class="cls-5" x="9.02" y="17.38" width="8.84" height=".42"/>
      <ellipse class="cls-3" cx="9.92" cy="19.21" rx=".25" ry=".21"/>
      <path class="cls-7" d="M11.1,19.45c-.16,0-.29-.11-.29-.24s.13-.24.29-.24.29.11.29.24-.13.24-.29.24ZM11.1,19.03c-.12,0-.21.08-.21.17s.1.17.21.17.21-.08.21-.17-.1-.17-.21-.17Z"/>
      <g>
        <path class="cls-7" d="M17.44,18.78h-4.13v-.34h4.13v.34ZM13.38,18.72h3.98v-.21h-3.98v.21Z"/>
        <path class="cls-7" d="M17.44,19.38h-4.13v-.34h4.13v.34ZM13.38,19.32h3.98v-.21h-3.98v.21Z"/>
        <path class="cls-7" d="M17.44,19.98h-4.13v-.34h4.13v.34ZM13.38,19.92h3.98v-.21h-3.98v.21Z"/>
      </g>
    </g>
    <g>
      <rect class="cls-2" x="8.61" y="14.66" width="9.65" height="2.72"/>
      <rect class="cls-5" x="9.02" y="14.23" width="8.84" height=".42"/>
      <ellipse class="cls-3" cx="9.92" cy="16.07" rx=".25" ry=".21"/>
      <path class="cls-7" d="M11.1,16.3c-.16,0-.29-.11-.29-.24s.13-.24.29-.24.29.11.29.24-.13.24-.29.24ZM11.1,15.89c-.12,0-.21.08-.21.17s.1.17.21.17.21-.08.21-.17-.1-.17-.21-.17Z"/>
      <g>
        <path class="cls-7" d="M17.44,15.64h-4.13v-.34h4.13v.34ZM13.38,15.57h3.98v-.21h-3.98v.21Z"/>
        <path class="cls-7" d="M17.44,16.24h-4.13v-.34h4.13v.34ZM13.38,16.17h3.98v-.21h-3.98v.21Z"/>
        <path class="cls-7" d="M17.44,16.84h-4.13v-.34h4.13v.34ZM13.38,16.77h3.98v-.21h-3.98v.21Z"/>
      </g>
    </g>
    <g>
      <rect class="cls-2" x="8.61" y="11.51" width="9.65" height="2.72"/>
      <path class="cls-3" d="M10.17,12.92c0,.11-.11.21-.25.21s-.25-.09-.25-.21.11-.21.25-.21.25.09.25.21Z"/>
      <path class="cls-7" d="M11.1,13.16c-.16,0-.29-.11-.29-.24s.13-.24.29-.24.29.11.29.24-.13.24-.29.24ZM11.1,12.75c-.12,0-.21.08-.21.17s.1.17.21.17.21-.08.21-.17-.1-.17-.21-.17Z"/>
      <g>
        <path class="cls-7" d="M17.44,12.49h-4.13v-.34h4.13v.34ZM13.38,12.43h3.98v-.21h-3.98v.21Z"/>
        <path class="cls-7" d="M17.44,13.09h-4.13v-.34h4.13v.34ZM13.38,13.03h3.98v-.21h-3.98v.21Z"/>
        <path class="cls-7" d="M17.44,13.69h-4.13v-.34h4.13v.34ZM13.38,13.63h3.98v-.21h-3.98v.21Z"/>
      </g>
    </g>
  </g>
</svg>