<?xml version="1.0" encoding="iso-8859-1"?>
<!-- Generator: Adobe Illustrator 29.8.1, SVG Export Plug-In . SVG Version: 9.03 Build 0)  -->
<svg version="1.1" xmlns="http://www.w3.org/2000/svg" xmlns:xlink="http://www.w3.org/1999/xlink" x="0px" y="0px"
	 viewBox="0 0 205 32" style="enable-background:new 0 0 205 32;" xml:space="preserve">
<g id="Fav">
	<g>
		<circle style="fill:#F2F2F2;" cx="-16.321" cy="16" r="13.5"/>
		<path style="fill:none;stroke:#0500BF;stroke-width:0.14;stroke-miterlimit:10;" d="M-10.899,8.489l-4.528,2.583 M-14.373,6.694
			l-6.001,3.502 M-18.222,10.95l0.886-0.511l0-1.947 M-20.221,24.105l5.112-3.45 M-17.065,25.88l5.153-3.426 M-14.217,22.009
			l-0.745,0.494l0.12,1.898 M-19.481,8.488l-3.004,1.658 M-22.852,9.955c-0.237-0.005-0.432,0.183-0.437,0.42
			c-0.005,0.237,0.183,0.432,0.42,0.437c0.237,0.005,0.432-0.183,0.437-0.42C-22.428,10.155-22.616,9.96-22.852,9.955z
			 M-19.096,7.853c-0.237-0.005-0.432,0.183-0.437,0.42c-0.005,0.237,0.183,0.432,0.42,0.437c0.237,0.005,0.432-0.183,0.437-0.42
			C-18.671,8.053-18.859,7.857-19.096,7.853z"/>
		<path style="fill:#023FFF;" d="M-16.321,2.5c-7.455,0-13.5,6.045-13.5,13.5c0,7.455,6.045,13.5,13.5,13.5
			c7.455,0,13.5-6.045,13.5-13.5C-2.821,8.545-8.864,2.5-16.321,2.5z M-5.471,9.924c-0.01,0.079,0.02,0.165-0.05,0.232
			c-0.008,0.008,0,0.032-0.001,0.049c-0.017,0.32-0.031,0.64-0.052,0.959c-0.007,0.111-0.03,0.221-0.049,0.331
			c-0.018,0.102,0.041,0.21-0.043,0.311c-0.029,0.034-0.011,0.113-0.006,0.171c0.037,0.364-0.075,0.722-0.051,1.085
			c-0.08,0.163-0.046,0.337-0.049,0.507c-0.002,0.113-0.071,0.21-0.057,0.332c0.012,0.108,0.044,0.231-0.044,0.331
			c-0.008,0.01-0.001,0.033-0.001,0.049c-0.004,0.187,0.023,0.377-0.05,0.557c0.039,0.323-0.07,0.638-0.05,0.959
			c0.008,0.131-0.072,0.246-0.055,0.382c0.017,0.132,0.033,0.276-0.004,0.4c-0.048,0.163-0.032,0.323-0.045,0.484
			c-0.007,0.086-0.037,0.17-0.047,0.256c-0.01,0.079,0.015,0.162-0.049,0.233c-0.017,0.018-0.002,0.065-0.003,0.098
			c-0.002,0.096,0.006,0.19-0.048,0.282c-0.083,0.14-0.056,0.308-0.094,0.462c-0.036,0.144-0.078,0.288-0.106,0.434
			c-0.039,0.201-0.105,0.394-0.163,0.588c-0.057,0.191-0.114,0.388-0.195,0.571c-0.176,0.396-0.314,0.812-0.528,1.188
			c-0.166,0.292-0.301,0.6-0.502,0.876c-0.128,0.176-0.238,0.369-0.36,0.553c-0.123,0.187-0.263,0.36-0.395,0.539
			c-0.214,0.29-0.458,0.554-0.705,0.817c-0.111,0.118-0.205,0.255-0.326,0.364c-0.297,0.27-0.588,0.549-0.902,0.797
			c-0.491,0.389-1.019,0.73-1.538,1.081c-0.129,0.087-0.246,0.193-0.392,0.263c-0.148,0.072-0.269,0.198-0.407,0.293
			c-0.129,0.089-0.268,0.163-0.398,0.251c-0.755,0.504-1.492,1.034-2.263,1.514c-0.196,0.122-0.375,0.269-0.561,0.405
			c-0.042,0.03-0.081,0.064-0.121,0.096c-0.134,0-0.268,0-0.402,0c-0.455-0.377-0.973-0.664-1.454-1.005
			c-0.29-0.206-0.586-0.403-0.881-0.602c-0.425-0.287-0.853-0.571-1.278-0.857c-0.295-0.199-0.584-0.407-0.884-0.598
			c-0.402-0.256-0.776-0.55-1.166-0.822c-0.119-0.083-0.22-0.192-0.333-0.286c-0.26-0.216-0.51-0.447-0.745-0.691
			c-0.267-0.277-0.528-0.562-0.763-0.865c-0.306-0.395-0.589-0.809-0.872-1.221c-0.092-0.134-0.156-0.287-0.233-0.43
			c-0.096-0.178-0.202-0.352-0.287-0.535c-0.183-0.393-0.371-0.783-0.513-1.195c-0.067-0.196-0.149-0.391-0.211-0.591
			c-0.069-0.224-0.119-0.453-0.185-0.678c-0.028-0.093-0.044-0.184-0.053-0.281c-0.009-0.09-0.051-0.178-0.085-0.265
			c-0.035-0.089,0.029-0.2-0.062-0.276c-0.017-0.177-0.046-0.355-0.047-0.532c-0.002-0.246-0.089-0.485-0.053-0.733
			c-0.087-0.136-0.045-0.287-0.048-0.432c-0.003-0.114-0.077-0.21-0.056-0.332c0.018-0.106,0.031-0.227-0.002-0.324
			c-0.062-0.178-0.03-0.356-0.046-0.534c-0.009-0.103-0.039-0.204-0.047-0.306c-0.008-0.108,0.027-0.229-0.008-0.324
			c-0.061-0.162-0.037-0.323-0.042-0.484c-0.004-0.13-0.073-0.245-0.057-0.382c0.014-0.117,0.039-0.246-0.045-0.356
			c-0.004-0.005,0-0.016-0.001-0.025c-0.017-0.303-0.045-0.606-0.045-0.909c0-0.126-0.053-0.235-0.059-0.356
			c-0.006-0.119,0.026-0.237-0.04-0.361c-0.042-0.078-0.009-0.197-0.008-0.297c0.004-0.329-0.086-0.654-0.05-0.984
			c-0.111-0.164-0.016-0.36-0.092-0.54c-0.068-0.16,0.061-0.345,0.249-0.45c0.361-0.201,0.72-0.404,1.082-0.603
			c0.341-0.187,0.689-0.362,1.026-0.556c0.331-0.19,0.666-0.373,1.002-0.554c0.336-0.181,0.667-0.37,1.002-0.553
			c0.335-0.183,0.669-0.367,1.003-0.552c0.334-0.185,0.668-0.37,1.003-0.552c0.342-0.186,0.685-0.369,1.025-0.558
			c0.32-0.178,0.639-0.36,0.961-0.535c0.348-0.19,0.696-0.381,1.045-0.571c0.328-0.179,0.656-0.361,0.981-0.547
			c0.149-0.085,0.301-0.165,0.46-0.252c0.072,0,0.156,0,0.245,0c0.198,0.116,0.397,0.24,0.603,0.351
			c0.302,0.162,0.604,0.325,0.902,0.494c0.216,0.122,0.433,0.246,0.654,0.359c0.271,0.139,0.542,0.276,0.796,0.446
			c0.082,0.055,0.185,0.08,0.273,0.127c0.391,0.21,0.781,0.421,1.169,0.636c0.327,0.181,0.65,0.371,0.978,0.552
			c0.341,0.188,0.685,0.368,1.027,0.554c0.335,0.183,0.668,0.368,1.003,0.553c0.334,0.184,0.669,0.368,1.002,0.553
			c0.34,0.189,0.688,0.366,1.024,0.559c0.318,0.183,0.65,0.341,0.96,0.537C-5.725,9.14-5.593,9.23-5.471,9.311
			C-5.484,9.452-5.387,9.548-5.42,9.669C-5.443,9.752-5.459,9.838-5.471,9.924z M-5.471,9.311C-5.593,9.23-5.725,9.14-5.859,9.054
			c-0.31-0.197-0.642-0.354-0.96-0.537c-0.336-0.194-0.684-0.37-1.024-0.559c-0.334-0.185-0.668-0.369-1.002-0.553
			c-0.334-0.184-0.668-0.37-1.003-0.553c-0.342-0.186-0.686-0.366-1.027-0.554c-0.328-0.181-0.651-0.37-0.978-0.552
			c-0.388-0.215-0.778-0.426-1.169-0.636c-0.088-0.048-0.191-0.072-0.273-0.127c-0.254-0.17-0.525-0.307-0.796-0.446
			c-0.221-0.114-0.439-0.237-0.654-0.359c-0.299-0.169-0.6-0.332-0.902-0.494c-0.206-0.111-0.405-0.235-0.603-0.351
			c-0.089,0-0.173,0-0.245,0c-0.159,0.087-0.311,0.167-0.46,0.252c-0.325,0.186-0.653,0.368-0.981,0.547
			c-0.348,0.19-0.696,0.38-1.045,0.571c-0.322,0.176-0.64,0.357-0.961,0.535c-0.34,0.189-0.683,0.372-1.025,0.558
			c-0.335,0.182-0.669,0.367-1.003,0.552c-0.334,0.185-0.668,0.369-1.003,0.552c-0.335,0.183-0.667,0.372-1.002,0.553
			c-0.336,0.181-0.671,0.364-1.002,0.554c-0.337,0.194-0.685,0.369-1.026,0.556c-0.362,0.199-0.722,0.401-1.082,0.603
			c-0.188,0.105-0.316,0.29-0.249,0.45c0.076,0.179-0.018,0.376,0.092,0.54c-0.035,0.331,0.055,0.655,0.05,0.984
			c-0.001,0.101-0.034,0.219,0.008,0.297c0.066,0.123,0.034,0.241,0.04,0.361c0.006,0.121,0.059,0.23,0.059,0.356
			c-0.001,0.303,0.028,0.606,0.045,0.909c0,0.008-0.003,0.019,0.001,0.025c0.083,0.11,0.058,0.239,0.045,0.356
			c-0.016,0.137,0.053,0.252,0.057,0.382c0.005,0.161-0.019,0.322,0.042,0.484c0.036,0.095,0,0.216,0.008,0.324
			c0.008,0.103,0.038,0.204,0.047,0.306c0.015,0.178-0.016,0.356,0.046,0.534c0.034,0.097,0.02,0.218,0.002,0.324
			c-0.02,0.121,0.053,0.218,0.056,0.332c0.003,0.145-0.039,0.296,0.048,0.432c-0.036,0.248,0.051,0.487,0.053,0.733
			c0.001,0.177,0.031,0.355,0.047,0.532c0.091,0.076,0.027,0.187,0.062,0.276c0.034,0.087,0.076,0.175,0.085,0.265
			c0.009,0.097,0.025,0.188,0.053,0.281c0.066,0.225,0.116,0.454,0.185,0.678c0.062,0.2,0.143,0.394,0.211,0.591
			c0.142,0.413,0.33,0.803,0.513,1.195c0.085,0.183,0.191,0.356,0.287,0.535c0.077,0.144,0.141,0.297,0.233,0.43
			c0.284,0.412,0.566,0.826,0.872,1.221c0.235,0.303,0.496,0.588,0.763,0.865c0.235,0.244,0.484,0.475,0.745,0.691
			c0.113,0.094,0.214,0.203,0.333,0.286c0.39,0.272,0.764,0.566,1.166,0.822c0.3,0.191,0.589,0.4,0.884,0.598
			c0.426,0.287,0.853,0.571,1.278,0.857c0.295,0.199,0.591,0.396,0.881,0.602c0.481,0.34,0.999,0.627,1.454,1.005
			c0.134,0,0.268,0,0.402,0c0.04-0.032,0.08-0.065,0.121-0.096c0.186-0.136,0.366-0.283,0.561-0.405
			c0.771-0.48,1.508-1.01,2.263-1.514c0.13-0.087,0.269-0.162,0.398-0.251c0.138-0.095,0.259-0.221,0.407-0.293
			c0.146-0.07,0.263-0.176,0.392-0.263c0.519-0.351,1.046-0.692,1.538-1.081c0.314-0.249,0.605-0.528,0.902-0.797
			c0.121-0.11,0.215-0.247,0.326-0.364c0.247-0.263,0.491-0.527,0.705-0.817c0.132-0.179,0.272-0.352,0.395-0.539
			c0.121-0.184,0.232-0.377,0.36-0.553c0.201-0.276,0.335-0.585,0.502-0.876c0.215-0.376,0.352-0.792,0.528-1.188
			c0.082-0.183,0.138-0.38,0.195-0.571c0.057-0.193,0.124-0.387,0.163-0.588c0.028-0.146,0.07-0.29,0.106-0.434
			c0.038-0.154,0.011-0.322,0.094-0.462c0.054-0.092,0.046-0.186,0.048-0.282c0.001-0.033-0.014-0.08,0.003-0.098
			c0.064-0.071,0.04-0.154,0.049-0.233c0.01-0.086,0.04-0.17,0.047-0.256c0.013-0.161-0.003-0.321,0.045-0.484
			c0.036-0.123,0.021-0.268,0.004-0.4c-0.018-0.136,0.063-0.25,0.055-0.382c-0.02-0.321,0.088-0.637,0.05-0.959
			c0.073-0.181,0.046-0.37,0.05-0.557c0-0.017-0.007-0.04,0.001-0.049c0.088-0.101,0.056-0.224,0.044-0.331
			c-0.014-0.121,0.055-0.218,0.057-0.332c0.003-0.17-0.031-0.344,0.049-0.507c-0.024-0.364,0.088-0.721,0.051-1.085
			c-0.006-0.058-0.024-0.137,0.006-0.171c0.085-0.1,0.026-0.209,0.043-0.311c0.019-0.11,0.042-0.22,0.049-0.331
			c0.021-0.319,0.035-0.639,0.052-0.959c0.001-0.017-0.007-0.041,0.001-0.049c0.071-0.067,0.04-0.153,0.05-0.232
			c0.011-0.086,0.027-0.172,0.05-0.255C-5.387,9.548-5.484,9.452-5.471,9.311z M-6.324,10.159c-0.019,0.029-0.001,0.082-0.003,0.124
			c-0.016,0.303-0.004,0.612-0.06,0.907c-0.042,0.223-0.023,0.44-0.042,0.659c-0.009,0.103-0.039,0.204-0.047,0.306
			c-0.008,0.108,0.029,0.23-0.009,0.324c-0.059,0.147-0.028,0.29-0.044,0.434c-0.012,0.111-0.039,0.22-0.048,0.331
			c-0.008,0.108,0.028,0.229-0.008,0.324c-0.067,0.179-0.027,0.357-0.045,0.534c-0.012,0.119-0.035,0.237-0.049,0.356
			c-0.013,0.111,0.028,0.229-0.049,0.332c-0.012,0.016-0.004,0.049-0.001,0.074c0.037,0.314-0.034,0.624-0.063,0.933
			c-0.022,0.237-0.025,0.473-0.039,0.709c-0.006,0.103-0.069,0.194-0.053,0.306c0.014,0.102-0.012,0.203-0.039,0.307
			c-0.035,0.137-0.011,0.286-0.054,0.431c-0.067,0.226-0.046,0.472-0.155,0.69c0.021,0.254-0.097,0.481-0.161,0.714
			c-0.053,0.191-0.106,0.389-0.189,0.574c-0.073,0.162-0.143,0.327-0.201,0.495c-0.111,0.322-0.365,0.845-0.533,1.112
			c-0.079,0.125-0.143,0.259-0.218,0.387c-0.213,0.363-0.451,0.706-0.707,1.039c-0.159,0.206-0.332,0.399-0.493,0.602
			c-0.234,0.295-0.5,0.555-0.775,0.805c-0.309,0.281-0.629,0.552-0.974,0.794c-0.266,0.186-0.546,0.354-0.801,0.551
			c-0.253,0.195-0.524,0.359-0.785,0.54c-0.252,0.175-0.524,0.323-0.769,0.507c-0.55,0.415-1.145,0.762-1.705,1.161
			c-0.31,0.221-0.639,0.414-0.935,0.655c-0.584-0.393-1.147-0.8-1.736-1.168c-0.396-0.247-0.77-0.529-1.154-0.795
			c-0.319-0.22-0.638-0.44-0.959-0.657c-0.189-0.128-0.392-0.237-0.571-0.377c-0.183-0.142-0.384-0.257-0.566-0.4
			c-0.261-0.204-0.517-0.413-0.773-0.622c-0.278-0.226-0.529-0.478-0.77-0.739c-0.295-0.32-0.574-0.653-0.83-1.009
			c-0.167-0.232-0.328-0.469-0.487-0.706c-0.265-0.396-0.499-0.812-0.689-1.247c-0.142-0.325-0.285-0.653-0.397-0.991
			c-0.09-0.273-0.195-0.542-0.26-0.821c-0.034-0.145-0.066-0.289-0.108-0.433c-0.04-0.137-0.017-0.293-0.06-0.429
			c-0.075-0.236-0.047-0.489-0.146-0.718c-0.003-0.007-0.001-0.017,0-0.025c0.038-0.29-0.075-0.57-0.05-0.859
			c0.019-0.214-0.088-0.418-0.051-0.633c-0.087-0.136-0.051-0.288-0.048-0.432c0.006-0.305-0.089-0.603-0.053-0.909
			c-0.089-0.171-0.042-0.354-0.048-0.532c-0.005-0.13-0.072-0.245-0.057-0.382c0.013-0.117,0.038-0.246-0.044-0.356
			c-0.008-0.011-0.003-0.033-0.001-0.049c0.034-0.281-0.039-0.556-0.061-0.833c-0.019-0.236-0.009-0.477-0.049-0.707
			c-0.027-0.154-0.011-0.31-0.046-0.457c-0.054-0.228-0.016-0.46-0.054-0.683c-0.026-0.154-0.037-0.305-0.043-0.462
			c0.427-0.22,0.841-0.464,1.266-0.69c0.323-0.172,0.64-0.358,0.961-0.534c0.348-0.191,0.704-0.366,1.046-0.568
			c0.322-0.191,0.653-0.366,0.98-0.549c0.339-0.19,0.688-0.363,1.026-0.556c0.365-0.208,0.735-0.408,1.106-0.605
			c0.337-0.179,0.667-0.37,1.002-0.553c0.335-0.183,0.667-0.371,1.003-0.551c0.343-0.184,0.683-0.372,1.024-0.56
			c0.231-0.128,0.478-0.235,0.683-0.402c0.456,0.228,0.885,0.481,1.322,0.72c0.349,0.191,0.702,0.376,1.039,0.591
			c0.248,0.158,0.536,0.252,0.782,0.413c0.244,0.159,0.513,0.267,0.755,0.429c0.244,0.163,0.522,0.275,0.779,0.422
			c0.224,0.127,0.462,0.229,0.672,0.382c0.055,0.04,0.126,0.06,0.188,0.091c0.432,0.215,0.845,0.465,1.272,0.69
			c0.323,0.17,0.639,0.359,0.961,0.534c0.348,0.19,0.696,0.381,1.045,0.569c0.349,0.188,0.69,0.393,1.046,0.57
			c0.084,0.042,0.16,0.097,0.256,0.156C-6.298,9.873-6.233,10.02-6.324,10.159z M-7.133,10.582c0.011-0.167-0.069-0.271-0.212-0.369
			c-0.196-0.133-0.415-0.219-0.613-0.345c-0.316-0.201-0.657-0.359-0.979-0.551c-0.341-0.202-0.701-0.373-1.045-0.57
			c-0.318-0.182-0.641-0.356-0.962-0.533C-11.331,8-11.721,7.787-12.112,7.578c-0.089-0.047-0.193-0.07-0.273-0.128
			c-0.346-0.246-0.741-0.405-1.096-0.635c-0.162-0.105-0.351-0.168-0.514-0.273c-0.165-0.106-0.367-0.148-0.507-0.295
			c-0.414-0.184-0.791-0.436-1.192-0.643c-0.084-0.043-0.164-0.094-0.245-0.137c-0.172-0.091-0.336-0.228-0.559-0.168
			c-0.273,0.154-0.53,0.302-0.79,0.445c-0.341,0.187-0.69,0.361-1.026,0.556c-0.324,0.188-0.658,0.356-0.981,0.548
			c-0.341,0.202-0.701,0.373-1.045,0.57c-0.318,0.182-0.641,0.357-0.962,0.533c-0.423,0.231-0.843,0.47-1.271,0.691
			c-0.062,0.032-0.132,0.051-0.188,0.091c-0.212,0.148-0.447,0.255-0.673,0.38c-0.252,0.139-0.507,0.273-0.758,0.412
			c-0.286,0.158-0.573,0.319-0.856,0.485c-0.134,0.079-0.282,0.134-0.411,0.218c-0.086,0.056-0.164,0.14-0.171,0.253
			c-0.009,0.133-0.033,0.278,0.007,0.399c0.036,0.107,0.029,0.206,0.042,0.309c0.013,0.102,0.039,0.204,0.048,0.306
			c0.017,0.186,0.005,0.37,0.042,0.559c0.044,0.229,0.031,0.471,0.05,0.707c0.022,0.277,0.096,0.552,0.061,0.833
			c-0.002,0.016-0.007,0.038,0.001,0.049c0.087,0.119,0.034,0.255,0.049,0.382c0.015,0.127,0.041,0.254,0.049,0.382
			c0.021,0.336,0.035,0.673,0.052,1.01c0.001,0.017-0.007,0.04,0.001,0.049c0.091,0.1,0.053,0.224,0.044,0.332
			c-0.011,0.12,0.054,0.218,0.058,0.332c0.007,0.22,0,0.438,0.037,0.66c0.036,0.213,0.098,0.432,0.064,0.656
			c-0.006,0.036,0.012,0.077,0.024,0.115c0.042,0.133,0.088,0.269,0.116,0.403c0.033,0.154,0.075,0.309,0.091,0.465
			c0.017,0.169,0.094,0.317,0.138,0.473c0.121,0.424,0.294,0.833,0.487,1.23c0.16,0.329,0.324,0.657,0.53,0.964
			c0.136,0.203,0.275,0.406,0.406,0.611c0.192,0.301,0.42,0.571,0.654,0.831c0.431,0.479,0.901,0.922,1.41,1.321
			c0.082,0.064,0.161,0.134,0.249,0.188c0.52,0.316,1.006,0.684,1.512,1.021c0.388,0.259,0.779,0.512,1.159,0.786
			c0.48,0.346,0.982,0.662,1.473,0.991c0.176,0.118,0.356,0.219,0.583,0.158c0.021-0.021,0.042-0.049,0.069-0.068
			c0.307-0.208,0.618-0.412,0.923-0.624c0.39-0.27,0.797-0.517,1.177-0.803c0.27-0.204,0.564-0.377,0.846-0.565
			c0.296-0.197,0.59-0.396,0.885-0.594c0.424-0.286,0.853-0.571,1.224-0.922c0.355-0.335,0.715-0.669,1.023-1.054
			c0.181-0.226,0.358-0.454,0.534-0.684c0.27-0.353,0.484-0.737,0.704-1.118c0.116-0.202,0.237-0.406,0.313-0.624
			c0.044-0.127,0.123-0.237,0.155-0.363c0.034-0.13,0.09-0.248,0.135-0.372c0.085-0.234,0.156-0.473,0.22-0.713
			c0.044-0.168,0.104-0.333,0.103-0.511c0.148-0.245,0.134-0.533,0.189-0.799c0.066-0.318,0.046-0.654,0.061-0.982
			c0.003-0.059-0.024-0.138,0.005-0.172c0.085-0.1,0.028-0.208,0.045-0.31c0.018-0.102,0.043-0.203,0.049-0.306
			c0.021-0.345,0.035-0.69,0.052-1.035c0.001-0.017-0.007-0.039,0.001-0.049c0.084-0.101,0.036-0.221,0.05-0.332
			c0.015-0.119,0.038-0.237,0.049-0.356c0.017-0.194,0.003-0.387,0.042-0.584c0.054-0.279,0.05-0.571,0.058-0.857
			c0.006-0.254,0.089-0.502,0.053-0.758c-0.001-0.008-0.004-0.019,0-0.025c0.09-0.127,0.035-0.271,0.05-0.407
			C-7.165,10.87-7.142,10.727-7.133,10.582z M-7.987,11.175c-0.009,0.136-0.039,0.271-0.047,0.407
			c-0.008,0.142,0.027,0.293-0.01,0.425c-0.04,0.146-0.012,0.296-0.049,0.432c-0.06,0.22-0.013,0.443-0.05,0.658
			c-0.037,0.212-0.011,0.428-0.055,0.631c-0.031,0.147-0.025,0.29-0.041,0.434c-0.011,0.103-0.039,0.204-0.047,0.306
			c-0.008,0.108,0.029,0.23-0.009,0.324c-0.059,0.147-0.033,0.29-0.043,0.434c-0.017,0.236-0.079,0.469-0.051,0.708
			c-0.094,0.187-0.024,0.39-0.052,0.582c-0.039,0.267-0.036,0.542-0.13,0.8c-0.013,0.037-0.02,0.079-0.018,0.118
			c0.01,0.156-0.041,0.297-0.089,0.441c-0.038,0.113,0.014,0.241-0.061,0.353c-0.042,0.063-0.058,0.143-0.098,0.246
			c0.043,0.145-0.078,0.285-0.13,0.439c-0.177,0.522-0.41,1.021-0.68,1.502c-0.166,0.296-0.351,0.579-0.557,0.851
			c-0.225,0.298-0.452,0.591-0.708,0.865c-0.098,0.105-0.18,0.234-0.292,0.327c-0.403,0.335-0.773,0.706-1.22,0.993
			c-0.239,0.153-0.469,0.325-0.706,0.484c-0.235,0.158-0.483,0.301-0.708,0.469c-0.597,0.445-1.234,0.829-1.846,1.252
			c-0.209,0.145-0.414,0.296-0.602,0.43c-0.154,0.092-0.215-0.069-0.325-0.08c-0.258-0.253-0.587-0.408-0.875-0.619
			c-0.319-0.234-0.665-0.429-0.979-0.673c-0.285-0.223-0.6-0.407-0.902-0.609s-0.604-0.402-0.906-0.604
			c-0.241-0.161-0.468-0.339-0.687-0.529c-0.24-0.208-0.509-0.387-0.716-0.628c-0.289-0.336-0.587-0.665-0.849-1.027
			c-0.2-0.277-0.39-0.56-0.571-0.848c-0.148-0.235-0.256-0.496-0.376-0.748c-0.136-0.287-0.25-0.583-0.358-0.882
			c-0.079-0.22-0.136-0.446-0.213-0.665c-0.003-0.007-0.017-0.012-0.017-0.018c-0.003-0.185-0.065-0.356-0.115-0.531
			c-0.048-0.167-0.029-0.348-0.102-0.511c-0.006-0.014-0.003-0.033-0.001-0.05c0.034-0.281-0.035-0.557-0.062-0.833
			c-0.025-0.262-0.033-0.523-0.039-0.785c-0.002-0.096-0.069-0.177-0.054-0.281c0.012-0.085,0.029-0.18-0.045-0.257
			c-0.013-0.013-0.004-0.049-0.001-0.074c0.035-0.314-0.034-0.624-0.062-0.933c-0.021-0.228-0.002-0.462-0.048-0.682
			c-0.039-0.189-0.036-0.373-0.039-0.559c-0.002-0.114-0.076-0.211-0.056-0.332c0.018-0.106,0.031-0.226-0.002-0.324
			c-0.052-0.154-0.007-0.315-0.051-0.457c-0.08-0.254-0.011-0.506-0.052-0.758c0.141-0.081,0.269-0.157,0.399-0.23
			c0.265-0.148,0.532-0.293,0.798-0.44c0.3-0.167,0.592-0.347,0.899-0.499c0.391-0.193,0.764-0.418,1.15-0.617
			c0.317-0.164,0.631-0.341,0.939-0.525c0.389-0.232,0.8-0.423,1.183-0.667c0.248-0.157,0.526-0.267,0.785-0.408
			c0.22-0.119,0.431-0.254,0.648-0.379c0.06-0.035,0.127-0.058,0.189-0.09c0.43-0.219,0.834-0.486,1.273-0.687
			c0.049-0.023,0.088-0.068,0.144-0.112c0.197,0.171,0.457,0.235,0.662,0.398c0.053,0.042,0.125,0.06,0.188,0.091
			c0.432,0.214,0.843,0.467,1.272,0.689c0.317,0.164,0.631,0.34,0.94,0.523c0.39,0.231,0.796,0.431,1.185,0.664
			c0.212,0.127,0.431,0.249,0.654,0.36c0.273,0.136,0.542,0.277,0.796,0.445c0.07,0.047,0.153,0.074,0.23,0.112
			c0.42,0.203,0.817,0.45,1.233,0.663c0.339,0.173,0.663,0.377,1.006,0.546c0.085,0.042,0.158,0.108,0.23,0.159
			C-7.986,10.924-7.979,11.05-7.987,11.175z"/>
		<g>
			<path style="fill:#FFBB00;" d="M-11.645,10.102c-0.076-0.087-0.168-0.149-0.293-0.14c-0.042,0.003-0.084,0.001-0.126,0.001
				c-2.879,0-5.758,0.002-8.638-0.003c-0.233,0-0.412,0.053-0.508,0.306c0,0.285,0,0.594,0,0.904c3.218,0,6.436,0,9.653,0
				c0-0.31,0-0.619,0-0.918C-11.588,10.196-11.609,10.143-11.645,10.102z"/>
			<path style="fill:#006CFF;" d="M-21.908,11.462c0.277,0,0.537,0,0.797,0c0-0.31,0-0.619,0-0.904
				c0.095-0.253,0.275-0.306,0.508-0.306c2.879,0.005,5.758,0.003,8.638,0.003c0.042,0,0.084,0.002,0.126-0.001
				c0.125-0.009,0.217,0.053,0.293,0.14c0.036,0.04,0.057,0.094,0.089,0.149c0,0.299,0,0.608,0,0.918c0.266,0,0.532,0,0.804,0
				c0-0.31-0.014-0.603,0.005-0.894c0.011-0.173-0.101-0.299-0.122-0.455c-0.194-0.234-0.353-0.508-0.683-0.585
				c-0.051-0.012-0.096-0.05-0.145-0.077c-3.031,0-6.063,0.001-9.096-0.002c-0.248,0-0.468,0.071-0.669,0.205
				c-0.081,0.054-0.15,0.127-0.22,0.197c-0.22,0.218-0.328,0.484-0.33,0.793c-0.001,0.209-0.001,0.419,0,0.628
				C-21.915,11.335-21.911,11.399-21.908,11.462z"/>
		</g>
		<g>
			<path style="fill:#FFBB00;" d="M-21.119,21.691c0.076,0.087,0.168,0.149,0.293,0.14c0.042-0.003,0.084,0,0.126,0
				c2.879,0,5.758-0.002,8.638,0.003c0.233,0,0.412-0.053,0.508-0.306c0-0.285,0-0.594,0-0.904c-3.218,0-6.436,0-9.653,0
				c0,0.31,0,0.619,0,0.918C-21.176,21.597-21.155,21.65-21.119,21.691z"/>
			<path style="fill:#006CFF;" d="M-11.555,20.624c0,0.31,0,0.619,0,0.904c-0.095,0.253-0.275,0.306-0.508,0.306
				c-2.879-0.005-5.758-0.003-8.638-0.003c-0.042,0-0.084-0.003-0.126,0c-0.125,0.009-0.217-0.053-0.293-0.14
				c-0.036-0.04-0.057-0.094-0.089-0.149c0-0.299,0-0.609,0-0.918c-0.266,0-0.532,0-0.804,0c0,0.276,0.002,0.535-0.001,0.794
				c-0.002,0.238,0.066,0.448,0.196,0.649c0.06,0.093,0.134,0.164,0.207,0.239c0.216,0.222,0.483,0.329,0.793,0.329
				c2.949,0,5.898-0.001,8.847,0.002c0.248,0,0.469-0.069,0.669-0.205c0.094-0.064,0.172-0.153,0.257-0.231
				c0.139-0.127,0.201-0.3,0.263-0.469c0.03-0.081,0.029-0.175,0.03-0.264c0.004-0.218,0.002-0.436,0.001-0.653
				c0-0.064-0.005-0.128-0.007-0.19C-11.036,20.624-11.296,20.624-11.555,20.624z"/>
		</g>
		<g>
			<g>
				<rect x="-21.209" y="17.8" style="fill:#023FFF;" width="9.653" height="2.72"/>
				<rect x="-20.802" y="17.377" style="fill:#0500BF;" width="8.841" height="0.423"/>
				<ellipse style="fill:#FFFFFF;" cx="-19.903" cy="19.209" rx="0.253" ry="0.206"/>
				<path style="fill:#EEB715;" d="M-18.725,19.446c-0.161,0-0.293-0.107-0.293-0.238c0-0.131,0.131-0.238,0.293-0.238
					c0.161,0,0.293,0.107,0.293,0.238C-18.432,19.34-18.564,19.446-18.725,19.446z M-18.725,19.035
					c-0.118,0-0.214,0.078-0.214,0.174c0,0.096,0.096,0.174,0.214,0.174c0.118,0,0.214-0.078,0.214-0.174
					C-18.511,19.113-18.607,19.035-18.725,19.035z"/>
				<g>
					<path style="fill:#EEB715;" d="M-12.382,18.78h-4.134v-0.342h4.134V18.78z M-16.438,18.716h3.977v-0.214h-3.977V18.716z"/>
					<path style="fill:#EEB715;" d="M-12.382,19.38h-4.134v-0.342h4.134V19.38z M-16.438,19.316h3.977v-0.214h-3.977V19.316z"/>
					<path style="fill:#EEB715;" d="M-12.382,19.979h-4.134v-0.342h4.134V19.979z M-16.438,19.915h3.977v-0.214h-3.977V19.915z"/>
				</g>
			</g>
			<g>
				<rect x="-21.209" y="14.657" style="fill:#023FFF;" width="9.653" height="2.72"/>
				<rect x="-20.802" y="14.234" style="fill:#0500BF;" width="8.841" height="0.423"/>
				<ellipse style="fill:#FFFFFF;" cx="-19.903" cy="16.066" rx="0.253" ry="0.206"/>
				<path style="fill:#EEB715;" d="M-18.725,16.304c-0.161,0-0.293-0.107-0.293-0.238c0-0.131,0.131-0.238,0.293-0.238
					c0.161,0,0.293,0.107,0.293,0.238C-18.432,16.197-18.564,16.304-18.725,16.304z M-18.725,15.892
					c-0.118,0-0.214,0.078-0.214,0.174c0,0.096,0.096,0.174,0.214,0.174c0.118,0,0.214-0.078,0.214-0.174
					C-18.511,15.97-18.607,15.892-18.725,15.892z"/>
				<g>
					<path style="fill:#EEB715;" d="M-12.382,15.638h-4.134v-0.342h4.134V15.638z M-16.438,15.574h3.977v-0.214h-3.977V15.574z"/>
					<path style="fill:#EEB715;" d="M-12.382,16.237h-4.134v-0.342h4.134V16.237z M-16.438,16.173h3.977v-0.214h-3.977V16.173z"/>
					<path style="fill:#EEB715;" d="M-12.382,16.836h-4.134v-0.342h4.134V16.836z M-16.438,16.772h3.977v-0.214h-3.977V16.772z"/>
				</g>
			</g>
			<g>
				<rect x="-21.209" y="11.514" style="fill:#023FFF;" width="9.653" height="2.72"/>
				<path style="fill:#FFFFFF;" d="M-19.65,12.923c0,0.114-0.113,0.206-0.253,0.206c-0.14,0-0.253-0.092-0.253-0.206
					c0-0.114,0.113-0.206,0.253-0.206C-19.763,12.717-19.65,12.809-19.65,12.923z"/>
				<path style="fill:#EEB715;" d="M-18.725,13.161c-0.161,0-0.293-0.107-0.293-0.238c0-0.131,0.131-0.238,0.293-0.238
					c0.161,0,0.293,0.107,0.293,0.238C-18.432,13.054-18.564,13.161-18.725,13.161z M-18.725,12.749
					c-0.118,0-0.214,0.078-0.214,0.174s0.096,0.174,0.214,0.174c0.118,0,0.214-0.078,0.214-0.174S-18.607,12.749-18.725,12.749z"/>
				<g>
					<path style="fill:#EEB715;" d="M-12.382,12.495h-4.134v-0.342h4.134V12.495z M-16.438,12.431h3.977v-0.214h-3.977V12.431z"/>
					<path style="fill:#EEB715;" d="M-12.382,13.094h-4.134v-0.342h4.134V13.094z M-16.438,13.03h3.977v-0.214h-3.977V13.03z"/>
					<path style="fill:#EEB715;" d="M-12.382,13.694h-4.134v-0.342h4.134V13.694z M-16.438,13.63h3.977v-0.214h-3.977V13.63z"/>
				</g>
			</g>
		</g>
	</g>
</g>
<g id="logo">
	<g>
		<path style="fill:#FFBB00;" d="M47.565,9.513h-9.307v5.009h8.571c0.632,0,1.1,0.141,1.413,0.423
			c0.31,0.282,0.465,0.657,0.465,1.12c0,0.463-0.152,0.84-0.46,1.134c-0.307,0.293-0.778,0.437-1.419,0.437h-8.571v5.802h9.626
			c0.649,0,1.139,0.149,1.467,0.451c0.33,0.302,0.494,0.702,0.494,1.204c0,0.502-0.164,0.874-0.494,1.176
			c-0.33,0.302-0.818,0.451-1.467,0.451H36.656c-0.9,0-1.546-0.2-1.94-0.598s-0.592-1.044-0.592-1.935V8.856
			c0-0.592,0.087-1.077,0.265-1.453c0.175-0.375,0.451-0.649,0.826-0.821c0.375-0.172,0.855-0.257,1.441-0.257h10.906
			c0.657,0,1.148,0.147,1.467,0.437c0.319,0.293,0.479,0.674,0.479,1.148s-0.161,0.869-0.479,1.162
			C48.71,9.366,48.219,9.51,47.562,9.51L47.565,9.513z"/>
		<path style="fill:#FFBB00;" d="M55.061,11.081c0.341,0,0.542,0.113,0.683,0.398l6.752,11.767c0.113,0.172,0.144,0.172,0.285,0.172
			h0.141c0.144,0,0.2,0,0.285-0.172l6.724-11.767c0.141-0.285,0.313-0.398,0.654-0.398h3.133c0.398,0,0.57,0.341,0.398,0.714
			L66.309,25.44c-0.513,0.939-1.139,1.283-2.392,1.283H61.61c-1.283,0-1.853-0.341-2.363-1.283l-7.863-13.645
			c-0.228-0.369-0.028-0.714,0.369-0.714h3.306H55.061z"/>
		<path style="fill:#FFBB00;" d="M89.964,11.081c4.986,0,6.78,1.509,6.78,5.754v4.132c0,4.245-1.794,5.754-6.78,5.754H81.9
			c-4.986,0-6.752-1.509-6.752-5.754v-4.132c0-4.245,1.766-5.754,6.752-5.754H89.964z M79.196,20.256
			c0,2.392,0.626,2.992,3.105,2.992h7.265c2.507,0,3.133-0.598,3.133-2.992v-2.708c0-2.363-0.626-2.961-3.133-2.961h-7.265
			c-2.479,0-3.105,0.598-3.105,2.961V20.256z"/>
		<path style="fill:#023FFF;" d="M120.791,6.78c0.429,0,0.626,0.2,0.626,0.626v2.792c0,0.429-0.2,0.626-0.626,0.626h-12.678
			c-2.933,0-3.788,0.883-3.788,3.903v4.044c0,3.021,0.855,3.903,3.788,3.903h12.678c0.429,0,0.626,0.2,0.626,0.626v2.792
			c0,0.429-0.2,0.626-0.626,0.626h-12.822c-5.785,0-7.976-2.05-7.976-7.522v-4.902c0-5.469,2.194-7.522,7.976-7.522h12.822V6.78z"/>
		<path style="fill:#023FFF;" d="M127.831,5.356c0.398,0,0.626,0.2,0.626,0.626v20.115c0,0.429-0.228,0.626-0.626,0.626h-2.792
			c-0.429,0-0.626-0.2-0.626-0.626V5.982c0-0.426,0.2-0.626,0.626-0.626H127.831z"/>
		<path style="fill:#023FFF;" d="M146.662,11.081c4.986,0,6.78,1.509,6.78,5.754v4.132c0,4.245-1.794,5.754-6.78,5.754h-8.064
			c-4.986,0-6.752-1.509-6.752-5.754v-4.132c0-4.245,1.766-5.754,6.752-5.754H146.662z M135.891,20.256
			c0,2.392,0.626,2.992,3.105,2.992h7.265c2.507,0,3.133-0.598,3.133-2.992v-2.708c0-2.363-0.626-2.961-3.133-2.961h-7.265
			c-2.479,0-3.105,0.598-3.105,2.961V20.256z"/>
		<path style="fill:#023FFF;" d="M160.167,11.081c0.429,0,0.626,0.228,0.626,0.626v8.292c0,2.507,0.57,3.105,2.933,3.105h7.322
			c2.451,0,3.133-0.683,3.133-3.105v-8.292c0-0.398,0.228-0.626,0.626-0.626h2.792c0.429,0,0.626,0.228,0.626,0.626v9.259
			c0,4.216-1.737,5.754-6.78,5.754h-7.948c-5.015,0-6.752-1.54-6.752-5.754v-9.259c0-0.398,0.2-0.626,0.626-0.626h2.792H160.167z"/>
		<path style="fill:#023FFF;" d="M199.001,11.081V5.982c0-0.426,0.228-0.626,0.626-0.626h2.792c0.429,0,0.626,0.2,0.626,0.626
			v14.985c0,4.216-1.737,5.754-6.78,5.754h-7.976c-5.015,0-6.752-1.54-6.752-5.754v-4.132c0-4.188,1.737-5.754,6.752-5.754
			C188.289,11.081,199.001,11.081,199.001,11.081z M199.001,20.169v-5.556h-10.314c-2.451,0-3.105,0.598-3.105,3.021v2.536
			c0,2.423,0.654,3.021,3.105,3.021h7.181C198.318,23.189,199.001,22.591,199.001,20.169z"/>
	</g>
	<g>
		<circle style="fill:#F2F2F2;" cx="16.615" cy="16" r="15.615"/>
		<path style="fill:none;stroke:#0500BF;stroke-width:0.14;stroke-miterlimit:10;" d="M22.887,7.312L17.65,10.3 M18.868,5.236
			l-6.941,4.05 M14.417,10.159l1.025-0.591l0-2.251 M12.104,25.375l5.913-3.991 M15.754,27.428l5.961-3.963 M19.049,22.95
			l-0.861,0.571l0.139,2.196 M12.96,7.311L9.485,9.228 M9.061,9.008c-0.274-0.005-0.5,0.212-0.505,0.486s0.212,0.5,0.486,0.505
			c0.274,0.005,0.5-0.212,0.505-0.486C9.552,9.239,9.334,9.013,9.061,9.008z M13.406,6.577c-0.274-0.005-0.5,0.212-0.505,0.486
			c-0.005,0.274,0.212,0.5,0.486,0.505c0.274,0.005,0.5-0.212,0.505-0.486S13.679,6.582,13.406,6.577z"/>
		<path style="fill:#023FFF;" d="M16.615,0.385C7.992,0.385,1,7.377,1,16c0,8.623,6.992,15.615,15.615,15.615
			c8.623,0,15.615-6.992,15.615-15.615C32.23,7.377,25.241,0.385,16.615,0.385z M29.165,8.972c-0.012,0.091,0.024,0.191-0.058,0.268
			c-0.01,0.009,0,0.037-0.001,0.057c-0.019,0.37-0.035,0.74-0.06,1.11c-0.008,0.128-0.035,0.256-0.057,0.383
			c-0.02,0.118,0.048,0.243-0.05,0.359c-0.034,0.04-0.013,0.131-0.006,0.198c0.043,0.422-0.087,0.835-0.059,1.255
			c-0.092,0.188-0.053,0.39-0.057,0.586c-0.002,0.131-0.082,0.243-0.066,0.384c0.014,0.125,0.051,0.267-0.051,0.383
			c-0.01,0.011-0.001,0.038-0.001,0.057c-0.005,0.216,0.027,0.436-0.058,0.645c0.045,0.373-0.081,0.738-0.057,1.11
			c0.01,0.152-0.084,0.284-0.063,0.442c0.02,0.153,0.038,0.319-0.004,0.462c-0.056,0.188-0.037,0.373-0.052,0.56
			c-0.008,0.099-0.042,0.197-0.054,0.296c-0.011,0.091,0.018,0.187-0.057,0.269c-0.019,0.021-0.002,0.075-0.003,0.114
			c-0.002,0.111,0.007,0.22-0.055,0.326c-0.096,0.162-0.065,0.356-0.109,0.534c-0.041,0.167-0.09,0.334-0.123,0.502
			c-0.045,0.232-0.122,0.456-0.188,0.68c-0.066,0.221-0.131,0.449-0.226,0.661c-0.204,0.458-0.363,0.939-0.611,1.374
			c-0.193,0.337-0.348,0.694-0.58,1.013c-0.148,0.203-0.275,0.427-0.416,0.64c-0.143,0.216-0.305,0.416-0.457,0.623
			c-0.247,0.336-0.529,0.641-0.815,0.945c-0.128,0.136-0.237,0.294-0.377,0.421c-0.344,0.312-0.68,0.635-1.043,0.922
			c-0.568,0.45-1.179,0.844-1.779,1.25c-0.149,0.101-0.285,0.223-0.453,0.304c-0.171,0.083-0.311,0.229-0.471,0.339
			c-0.15,0.103-0.31,0.189-0.461,0.29c-0.873,0.583-1.725,1.196-2.617,1.751c-0.226,0.141-0.434,0.311-0.649,0.468
			c-0.048,0.035-0.094,0.074-0.14,0.111c-0.155,0-0.31,0-0.465,0c-0.527-0.437-1.126-0.768-1.682-1.162
			c-0.336-0.238-0.678-0.466-1.02-0.696c-0.492-0.332-0.986-0.66-1.479-0.992c-0.341-0.23-0.675-0.471-1.022-0.692
			c-0.465-0.296-0.898-0.636-1.349-0.951c-0.137-0.096-0.254-0.222-0.385-0.331c-0.301-0.25-0.59-0.517-0.861-0.799
			c-0.308-0.32-0.611-0.65-0.883-1.001c-0.354-0.457-0.681-0.936-1.009-1.413c-0.106-0.155-0.18-0.332-0.27-0.498
			c-0.111-0.206-0.233-0.407-0.332-0.618c-0.212-0.454-0.429-0.905-0.593-1.383c-0.078-0.227-0.172-0.452-0.244-0.683
			c-0.08-0.259-0.137-0.524-0.214-0.784c-0.032-0.108-0.05-0.213-0.061-0.325c-0.01-0.104-0.059-0.206-0.098-0.307
			c-0.04-0.103,0.034-0.231-0.071-0.319c-0.019-0.205-0.053-0.41-0.055-0.615c-0.002-0.285-0.103-0.561-0.062-0.848
			c-0.101-0.157-0.052-0.332-0.056-0.499c-0.003-0.132-0.089-0.243-0.065-0.384c0.021-0.123,0.036-0.262-0.003-0.375
			c-0.071-0.206-0.035-0.412-0.053-0.618c-0.01-0.119-0.045-0.235-0.054-0.354c-0.01-0.125,0.032-0.265-0.01-0.375
			c-0.071-0.188-0.043-0.374-0.049-0.56C4.33,13.333,4.25,13.2,4.268,13.041c0.016-0.135,0.045-0.285-0.052-0.412
			c-0.005-0.006,0-0.019-0.001-0.029c-0.019-0.35-0.052-0.701-0.051-1.051c0-0.146-0.061-0.271-0.068-0.412
			C4.09,11,4.127,10.863,4.051,10.721c-0.048-0.09-0.01-0.228-0.009-0.344c0.005-0.381-0.099-0.756-0.058-1.139
			c-0.128-0.19-0.019-0.417-0.107-0.625c-0.078-0.185,0.07-0.399,0.288-0.52C4.582,7.86,4.998,7.626,5.417,7.396
			C5.811,7.18,6.213,6.977,6.603,6.753c0.383-0.22,0.77-0.432,1.159-0.641c0.388-0.209,0.772-0.428,1.159-0.64
			c0.387-0.211,0.774-0.425,1.16-0.639c0.386-0.214,0.772-0.428,1.16-0.638c0.395-0.215,0.792-0.427,1.185-0.646
			c0.37-0.206,0.739-0.416,1.111-0.619c0.403-0.22,0.805-0.44,1.208-0.66c0.38-0.207,0.758-0.418,1.134-0.632
			c0.172-0.098,0.348-0.191,0.532-0.291c0.084,0,0.181,0,0.284,0c0.229,0.134,0.46,0.277,0.698,0.405
			c0.349,0.188,0.698,0.376,1.043,0.572c0.25,0.141,0.501,0.284,0.757,0.416c0.313,0.161,0.627,0.319,0.92,0.516
			c0.095,0.064,0.214,0.092,0.316,0.147c0.452,0.243,0.903,0.487,1.352,0.736c0.379,0.21,0.752,0.429,1.131,0.638
			c0.394,0.217,0.793,0.426,1.188,0.641c0.388,0.211,0.773,0.426,1.16,0.639c0.386,0.213,0.773,0.426,1.159,0.64
			c0.393,0.219,0.795,0.423,1.184,0.647c0.368,0.212,0.752,0.394,1.11,0.622c0.155,0.099,0.307,0.203,0.448,0.297
			c-0.014,0.164,0.098,0.275,0.059,0.414C29.197,8.773,29.179,8.873,29.165,8.972z M29.164,8.263
			c-0.141-0.094-0.293-0.198-0.448-0.297c-0.358-0.228-0.742-0.41-1.11-0.622c-0.389-0.224-0.791-0.428-1.184-0.647
			c-0.386-0.214-0.773-0.427-1.159-0.64c-0.387-0.213-0.772-0.428-1.16-0.639c-0.395-0.215-0.794-0.424-1.188-0.641
			c-0.379-0.209-0.752-0.428-1.131-0.638c-0.449-0.248-0.9-0.493-1.352-0.736c-0.102-0.055-0.221-0.083-0.316-0.147
			c-0.294-0.197-0.607-0.355-0.92-0.516c-0.256-0.131-0.507-0.274-0.757-0.416c-0.345-0.196-0.694-0.384-1.043-0.572
			c-0.238-0.128-0.469-0.272-0.698-0.405c-0.103,0-0.2,0-0.284,0c-0.184,0.101-0.36,0.193-0.532,0.291
			c-0.376,0.215-0.755,0.425-1.134,0.632c-0.403,0.22-0.805,0.44-1.208,0.66c-0.372,0.203-0.741,0.413-1.111,0.619
			c-0.393,0.218-0.79,0.431-1.185,0.646c-0.388,0.211-0.774,0.424-1.16,0.638c-0.386,0.214-0.773,0.427-1.16,0.639
			c-0.388,0.211-0.771,0.43-1.159,0.64c-0.389,0.21-0.776,0.421-1.159,0.641C6.213,6.977,5.811,7.18,5.417,7.396
			C4.998,7.626,4.582,7.86,4.165,8.093c-0.217,0.121-0.366,0.335-0.288,0.52c0.088,0.208-0.021,0.434,0.107,0.625
			c-0.041,0.383,0.063,0.758,0.058,1.139c-0.001,0.116-0.04,0.254,0.009,0.344C4.127,10.863,4.09,11,4.096,11.138
			c0.007,0.14,0.068,0.266,0.068,0.412c-0.001,0.35,0.032,0.701,0.051,1.051c0.001,0.01-0.004,0.022,0.001,0.029
			c0.097,0.127,0.068,0.277,0.052,0.412C4.25,13.2,4.33,13.333,4.334,13.483c0.006,0.187-0.022,0.372,0.049,0.56
			c0.041,0.11,0,0.25,0.01,0.375c0.009,0.119,0.044,0.235,0.054,0.354c0.018,0.205-0.019,0.411,0.053,0.618
			c0.039,0.112,0.023,0.252,0.003,0.375c-0.024,0.14,0.062,0.252,0.065,0.384c0.004,0.167-0.045,0.342,0.056,0.499
			c-0.041,0.287,0.059,0.563,0.062,0.848c0.002,0.205,0.035,0.41,0.055,0.615c0.105,0.088,0.031,0.216,0.071,0.319
			c0.039,0.1,0.088,0.202,0.098,0.307c0.011,0.112,0.029,0.217,0.061,0.325c0.077,0.26,0.134,0.525,0.214,0.784
			c0.071,0.231,0.166,0.456,0.244,0.683c0.164,0.477,0.381,0.928,0.593,1.383c0.099,0.212,0.221,0.412,0.332,0.618
			c0.09,0.166,0.164,0.343,0.27,0.498c0.328,0.477,0.655,0.956,1.009,1.413c0.272,0.351,0.574,0.681,0.883,1.001
			c0.271,0.282,0.56,0.549,0.861,0.799c0.131,0.109,0.248,0.235,0.385,0.331c0.451,0.315,0.884,0.655,1.349,0.951
			c0.347,0.221,0.681,0.462,1.022,0.692c0.492,0.332,0.986,0.66,1.479,0.992c0.341,0.23,0.684,0.458,1.02,0.696
			c0.556,0.394,1.156,0.725,1.682,1.162c0.155,0,0.31,0,0.465,0c0.047-0.037,0.092-0.076,0.14-0.111
			c0.216-0.157,0.423-0.328,0.649-0.468c0.892-0.555,1.745-1.168,2.617-1.751c0.151-0.101,0.311-0.187,0.461-0.29
			c0.16-0.11,0.3-0.256,0.471-0.339c0.168-0.081,0.304-0.203,0.453-0.304c0.6-0.406,1.21-0.801,1.779-1.25
			c0.363-0.288,0.7-0.61,1.043-0.922c0.14-0.127,0.249-0.285,0.377-0.421c0.286-0.304,0.568-0.609,0.815-0.945
			c0.153-0.207,0.315-0.407,0.457-0.623c0.141-0.213,0.268-0.437,0.416-0.64c0.232-0.319,0.388-0.676,0.58-1.013
			c0.248-0.435,0.407-0.916,0.611-1.374c0.094-0.212,0.16-0.44,0.226-0.661c0.066-0.224,0.143-0.448,0.188-0.68
			c0.033-0.169,0.081-0.336,0.123-0.502c0.044-0.178,0.013-0.373,0.109-0.534c0.063-0.106,0.053-0.215,0.055-0.326
			c0.001-0.039-0.016-0.092,0.003-0.114c0.074-0.082,0.046-0.178,0.057-0.269c0.012-0.1,0.047-0.197,0.054-0.296
			c0.015-0.186-0.004-0.371,0.052-0.56c0.042-0.143,0.024-0.31,0.004-0.462c-0.02-0.157,0.073-0.29,0.063-0.442
			c-0.023-0.372,0.102-0.736,0.057-1.11c0.085-0.209,0.053-0.428,0.058-0.645c0-0.019-0.008-0.046,0.001-0.057
			c0.102-0.117,0.065-0.259,0.051-0.383c-0.016-0.14,0.063-0.252,0.066-0.384c0.004-0.197-0.035-0.398,0.057-0.586
			c-0.028-0.421,0.102-0.834,0.059-1.255c-0.007-0.067-0.027-0.158,0.006-0.198c0.098-0.116,0.03-0.241,0.05-0.359
			c0.022-0.127,0.049-0.255,0.057-0.383c0.024-0.37,0.041-0.74,0.06-1.11c0.001-0.019-0.008-0.048,0.001-0.057
			c0.082-0.077,0.046-0.177,0.058-0.268c0.013-0.099,0.031-0.199,0.058-0.295C29.262,8.538,29.15,8.427,29.164,8.263z M28.179,9.244
			c-0.022,0.034-0.001,0.095-0.004,0.143c-0.019,0.351-0.004,0.707-0.069,1.049c-0.049,0.258-0.027,0.509-0.049,0.763
			c-0.01,0.119-0.045,0.235-0.054,0.354c-0.01,0.125,0.033,0.266-0.01,0.374c-0.068,0.17-0.033,0.336-0.051,0.502
			c-0.014,0.128-0.045,0.255-0.055,0.383c-0.01,0.125,0.032,0.265-0.009,0.375c-0.078,0.207-0.031,0.413-0.052,0.618
			c-0.014,0.138-0.041,0.274-0.056,0.412c-0.015,0.129,0.033,0.265-0.057,0.384c-0.014,0.019-0.005,0.057-0.002,0.086
			c0.043,0.364-0.039,0.722-0.073,1.079c-0.026,0.274-0.029,0.547-0.045,0.82c-0.007,0.119-0.079,0.225-0.061,0.354
			c0.016,0.118-0.014,0.235-0.045,0.356c-0.041,0.159-0.013,0.331-0.062,0.498c-0.077,0.261-0.054,0.546-0.18,0.798
			c0.024,0.294-0.112,0.556-0.187,0.826c-0.061,0.221-0.123,0.45-0.219,0.663c-0.084,0.188-0.165,0.378-0.232,0.572
			c-0.129,0.372-0.422,0.977-0.616,1.286c-0.091,0.145-0.165,0.3-0.252,0.448c-0.246,0.419-0.522,0.817-0.818,1.201
			c-0.183,0.238-0.384,0.462-0.57,0.696c-0.27,0.341-0.578,0.642-0.896,0.931c-0.358,0.325-0.727,0.638-1.126,0.918
			c-0.308,0.216-0.632,0.41-0.927,0.638c-0.292,0.226-0.606,0.415-0.908,0.624c-0.292,0.202-0.606,0.373-0.889,0.587
			c-0.636,0.48-1.325,0.881-1.972,1.342c-0.359,0.256-0.739,0.478-1.082,0.757c-0.675-0.454-1.326-0.925-2.008-1.351
			c-0.458-0.286-0.89-0.612-1.335-0.919c-0.369-0.255-0.738-0.509-1.11-0.76c-0.219-0.148-0.453-0.275-0.661-0.436
			c-0.211-0.165-0.444-0.297-0.655-0.463c-0.302-0.236-0.598-0.477-0.895-0.719c-0.322-0.262-0.612-0.553-0.89-0.854
			c-0.341-0.37-0.664-0.755-0.96-1.167c-0.193-0.269-0.38-0.542-0.564-0.816c-0.307-0.457-0.577-0.94-0.797-1.443
			c-0.164-0.376-0.33-0.755-0.459-1.147c-0.105-0.315-0.226-0.627-0.3-0.95c-0.039-0.168-0.076-0.335-0.125-0.501
			c-0.047-0.158-0.02-0.339-0.07-0.496c-0.087-0.272-0.055-0.566-0.169-0.831c-0.004-0.008-0.002-0.019,0-0.029
			c0.044-0.335-0.087-0.66-0.057-0.993c0.022-0.248-0.102-0.483-0.059-0.732c-0.101-0.157-0.058-0.333-0.055-0.499
			c0.007-0.353-0.103-0.698-0.061-1.052c-0.103-0.197-0.049-0.41-0.056-0.616c-0.005-0.15-0.084-0.284-0.066-0.442
			c0.015-0.135,0.044-0.284-0.051-0.412c-0.009-0.012-0.003-0.038-0.001-0.057c0.04-0.325-0.045-0.643-0.071-0.963
			c-0.022-0.273-0.011-0.551-0.057-0.818c-0.031-0.179-0.013-0.359-0.053-0.529c-0.062-0.264-0.019-0.532-0.062-0.79
			c-0.03-0.178-0.043-0.352-0.049-0.534c0.493-0.255,0.973-0.537,1.465-0.798C6.692,7.77,7.059,7.556,7.43,7.351
			C7.833,7.131,8.245,6.928,8.64,6.694c0.373-0.221,0.755-0.423,1.133-0.635c0.393-0.22,0.796-0.42,1.187-0.643
			c0.423-0.241,0.85-0.472,1.28-0.7c0.39-0.207,0.772-0.428,1.16-0.639c0.387-0.211,0.772-0.429,1.161-0.638
			c0.396-0.213,0.791-0.431,1.184-0.648c0.268-0.148,0.553-0.272,0.79-0.465c0.528,0.264,1.024,0.557,1.529,0.833
			c0.403,0.22,0.812,0.434,1.202,0.683c0.286,0.183,0.62,0.292,0.904,0.477c0.282,0.184,0.593,0.309,0.873,0.497
			c0.282,0.189,0.604,0.319,0.901,0.488c0.259,0.147,0.535,0.265,0.777,0.442c0.064,0.047,0.145,0.069,0.218,0.105
			c0.5,0.248,0.977,0.538,1.471,0.798c0.374,0.197,0.739,0.415,1.112,0.618c0.403,0.22,0.805,0.441,1.209,0.659
			c0.404,0.218,0.799,0.454,1.21,0.66c0.097,0.048,0.185,0.112,0.297,0.18C28.208,8.913,28.283,9.084,28.179,9.244z M27.243,9.734
			c0.013-0.193-0.079-0.314-0.246-0.426c-0.227-0.154-0.48-0.253-0.709-0.399c-0.366-0.232-0.759-0.416-1.132-0.637
			c-0.394-0.234-0.81-0.431-1.209-0.659c-0.368-0.21-0.742-0.411-1.112-0.617c-0.448-0.249-0.899-0.495-1.351-0.737
			c-0.102-0.055-0.223-0.081-0.316-0.148c-0.4-0.285-0.857-0.468-1.268-0.734c-0.188-0.122-0.406-0.195-0.595-0.315
			c-0.191-0.122-0.424-0.172-0.587-0.341c-0.479-0.213-0.915-0.504-1.379-0.744c-0.097-0.05-0.189-0.109-0.284-0.159
			c-0.198-0.105-0.389-0.264-0.646-0.195c-0.315,0.178-0.613,0.35-0.913,0.515c-0.395,0.216-0.798,0.418-1.187,0.643
			c-0.375,0.217-0.762,0.412-1.134,0.633c-0.394,0.234-0.81,0.432-1.209,0.659c-0.368,0.21-0.741,0.414-1.113,0.616
			c-0.49,0.267-0.975,0.544-1.471,0.8C9.312,7.527,9.231,7.549,9.166,7.595C8.92,7.766,8.649,7.89,8.388,8.034
			C8.097,8.195,7.801,8.35,7.511,8.51C7.18,8.694,6.848,8.879,6.521,9.072C6.366,9.163,6.195,9.227,6.045,9.324
			c-0.1,0.064-0.19,0.162-0.198,0.292c-0.01,0.154-0.038,0.322,0.008,0.461c0.041,0.123,0.034,0.238,0.048,0.357
			c0.015,0.119,0.045,0.235,0.056,0.354c0.02,0.215,0.006,0.428,0.048,0.647c0.051,0.265,0.035,0.544,0.057,0.818
			c0.026,0.32,0.111,0.638,0.071,0.964c-0.002,0.019-0.008,0.045,0.001,0.057c0.1,0.138,0.039,0.295,0.057,0.442
			c0.018,0.147,0.047,0.294,0.056,0.441c0.024,0.389,0.04,0.779,0.06,1.168c0.001,0.019-0.008,0.046,0.001,0.057
			c0.105,0.116,0.061,0.259,0.05,0.384c-0.012,0.139,0.063,0.252,0.067,0.383c0.008,0.254,0,0.506,0.043,0.763
			c0.041,0.246,0.113,0.5,0.073,0.759c-0.006,0.042,0.014,0.09,0.027,0.133c0.049,0.154,0.101,0.311,0.134,0.466
			c0.038,0.178,0.087,0.358,0.106,0.538c0.02,0.195,0.108,0.366,0.16,0.548c0.14,0.491,0.34,0.963,0.563,1.423
			c0.185,0.381,0.375,0.759,0.613,1.115c0.158,0.235,0.318,0.469,0.47,0.707c0.222,0.348,0.485,0.66,0.756,0.961
			c0.499,0.554,1.042,1.067,1.631,1.527c0.095,0.074,0.186,0.155,0.288,0.217c0.602,0.366,1.163,0.791,1.749,1.182
			c0.449,0.299,0.902,0.593,1.34,0.909c0.555,0.4,1.136,0.765,1.704,1.147c0.204,0.137,0.412,0.253,0.674,0.183
			c0.024-0.024,0.048-0.057,0.08-0.078c0.355-0.241,0.714-0.477,1.067-0.721c0.452-0.313,0.922-0.598,1.361-0.929
			c0.313-0.235,0.652-0.436,0.978-0.654c0.342-0.228,0.683-0.458,1.024-0.687c0.491-0.33,0.986-0.661,1.416-1.066
			c0.411-0.387,0.827-0.774,1.183-1.219c0.209-0.262,0.414-0.525,0.618-0.791c0.312-0.408,0.56-0.852,0.814-1.294
			c0.134-0.233,0.275-0.469,0.362-0.721c0.051-0.147,0.142-0.275,0.179-0.42c0.039-0.15,0.104-0.287,0.156-0.431
			c0.098-0.27,0.181-0.547,0.254-0.825c0.051-0.194,0.121-0.386,0.12-0.591c0.171-0.284,0.155-0.617,0.219-0.924
			c0.076-0.368,0.053-0.756,0.071-1.136c0.003-0.068-0.028-0.16,0.006-0.199c0.099-0.115,0.032-0.241,0.053-0.359
			c0.021-0.118,0.049-0.235,0.057-0.354c0.024-0.399,0.041-0.798,0.06-1.197c0.001-0.019-0.008-0.046,0.001-0.057
			c0.097-0.117,0.041-0.256,0.057-0.384c0.017-0.138,0.044-0.274,0.056-0.412c0.02-0.225,0.004-0.447,0.049-0.676
			c0.063-0.323,0.058-0.66,0.067-0.991c0.007-0.294,0.103-0.581,0.061-0.877c-0.001-0.01-0.004-0.022,0-0.029
			c0.105-0.147,0.04-0.314,0.058-0.471C27.206,10.066,27.232,9.901,27.243,9.734z M26.254,10.419
			c-0.01,0.157-0.045,0.313-0.054,0.47c-0.01,0.164,0.031,0.338-0.011,0.492c-0.046,0.169-0.014,0.342-0.056,0.5
			c-0.069,0.255-0.015,0.513-0.058,0.761c-0.043,0.245-0.013,0.495-0.063,0.73c-0.036,0.171-0.029,0.335-0.047,0.502
			c-0.013,0.119-0.045,0.235-0.055,0.354c-0.01,0.125,0.033,0.266-0.01,0.374c-0.068,0.169-0.038,0.335-0.05,0.502
			c-0.019,0.273-0.092,0.542-0.059,0.819c-0.109,0.217-0.028,0.451-0.061,0.673c-0.045,0.309-0.041,0.626-0.15,0.926
			c-0.015,0.043-0.023,0.091-0.021,0.137c0.011,0.18-0.048,0.344-0.103,0.51c-0.043,0.131,0.016,0.278-0.07,0.408
			c-0.048,0.073-0.067,0.165-0.114,0.284c0.05,0.168-0.09,0.329-0.151,0.507c-0.205,0.604-0.475,1.181-0.787,1.737
			c-0.192,0.342-0.406,0.67-0.644,0.985c-0.26,0.344-0.523,0.684-0.818,1.001c-0.114,0.122-0.208,0.271-0.338,0.378
			c-0.466,0.387-0.895,0.817-1.411,1.148c-0.276,0.177-0.543,0.376-0.817,0.56c-0.272,0.183-0.559,0.348-0.819,0.543
			c-0.691,0.515-1.427,0.959-2.135,1.448c-0.242,0.167-0.479,0.342-0.696,0.498c-0.178,0.106-0.249-0.08-0.376-0.093
			c-0.299-0.293-0.679-0.472-1.012-0.716c-0.369-0.271-0.769-0.496-1.132-0.779c-0.33-0.258-0.694-0.471-1.044-0.704
			c-0.349-0.233-0.699-0.465-1.048-0.699c-0.278-0.186-0.541-0.392-0.795-0.612c-0.278-0.241-0.588-0.448-0.828-0.727
			c-0.335-0.389-0.679-0.769-0.982-1.188c-0.232-0.32-0.452-0.647-0.661-0.98c-0.171-0.272-0.296-0.574-0.434-0.865
			c-0.158-0.332-0.289-0.674-0.414-1.021c-0.092-0.254-0.157-0.516-0.247-0.77c-0.003-0.008-0.019-0.014-0.019-0.021
			c-0.003-0.214-0.075-0.411-0.133-0.614c-0.055-0.193-0.033-0.403-0.118-0.591c-0.007-0.016-0.003-0.039-0.001-0.058
			c0.04-0.325-0.041-0.644-0.071-0.963c-0.029-0.303-0.038-0.605-0.045-0.907c-0.003-0.111-0.08-0.205-0.063-0.325
			c0.014-0.098,0.034-0.208-0.052-0.297c-0.015-0.015-0.005-0.056-0.002-0.085c0.041-0.364-0.039-0.722-0.072-1.079
			c-0.024-0.264-0.003-0.534-0.056-0.789c-0.046-0.219-0.041-0.431-0.045-0.647c-0.002-0.132-0.088-0.244-0.065-0.384
			c0.021-0.123,0.035-0.262-0.003-0.375c-0.06-0.178-0.008-0.365-0.059-0.528c-0.093-0.294-0.012-0.585-0.06-0.877
			c0.163-0.094,0.311-0.182,0.462-0.266C7.591,9.536,7.9,9.368,8.207,9.198c0.347-0.193,0.685-0.402,1.04-0.577
			c0.452-0.223,0.883-0.483,1.331-0.714c0.367-0.189,0.73-0.395,1.086-0.608c0.45-0.269,0.925-0.49,1.368-0.771
			c0.287-0.182,0.608-0.309,0.908-0.472c0.254-0.138,0.499-0.294,0.749-0.438c0.07-0.04,0.147-0.067,0.218-0.104
			c0.497-0.253,0.965-0.562,1.473-0.795c0.057-0.026,0.102-0.079,0.167-0.13c0.228,0.198,0.529,0.272,0.766,0.46
			c0.062,0.049,0.145,0.069,0.217,0.105c0.5,0.247,0.975,0.541,1.471,0.797c0.367,0.19,0.73,0.394,1.087,0.605
			c0.451,0.267,0.921,0.498,1.37,0.768c0.245,0.147,0.499,0.288,0.756,0.417c0.315,0.158,0.626,0.32,0.921,0.515
			c0.081,0.054,0.177,0.086,0.266,0.129c0.486,0.235,0.945,0.521,1.426,0.767c0.392,0.2,0.767,0.436,1.164,0.631
			c0.098,0.048,0.182,0.125,0.266,0.184C26.256,10.128,26.264,10.274,26.254,10.419z"/>
		<g>
			<path style="fill:#FFBB00;" d="M22.024,9.178c-0.088-0.1-0.195-0.172-0.339-0.162c-0.048,0.003-0.097,0.001-0.145,0.001
				c-3.33,0-6.661,0.002-9.991-0.004c-0.269,0-0.477,0.061-0.587,0.353c0,0.329,0,0.688,0,1.046c3.722,0,7.444,0,11.166,0
				c0-0.358,0-0.716,0-1.062C22.09,9.286,22.065,9.225,22.024,9.178z"/>
			<path style="fill:#006CFF;" d="M10.153,10.751c0.321,0,0.621,0,0.922,0c0-0.358,0-0.716,0-1.046
				c0.11-0.292,0.318-0.354,0.587-0.353c3.33,0.005,6.661,0.004,9.991,0.004c0.048,0,0.097,0.003,0.145-0.001
				c0.144-0.01,0.25,0.062,0.339,0.162c0.041,0.047,0.066,0.108,0.103,0.172c0,0.346,0,0.704,0,1.062c0.307,0,0.615,0,0.93,0
				c0-0.358-0.016-0.697,0.006-1.034c0.013-0.201-0.117-0.345-0.141-0.526c-0.224-0.271-0.409-0.587-0.791-0.677
				c-0.059-0.014-0.111-0.058-0.168-0.089c-3.506,0-7.013,0.001-10.521-0.002c-0.286,0-0.541,0.082-0.774,0.237
				c-0.094,0.063-0.174,0.147-0.255,0.227c-0.254,0.252-0.379,0.56-0.382,0.917c-0.002,0.242-0.001,0.484,0,0.727
				C10.145,10.604,10.15,10.678,10.153,10.751z"/>
		</g>
		<g>
			<path style="fill:#FFBB00;" d="M11.065,22.582c0.088,0.1,0.195,0.172,0.339,0.162c0.048-0.003,0.097-0.001,0.145-0.001
				c3.33,0,6.661-0.002,9.991,0.004c0.269,0,0.477-0.061,0.587-0.354c0-0.329,0-0.688,0-1.046c-3.722,0-7.444,0-11.166,0
				c0,0.358,0,0.716,0,1.062C10.999,22.474,11.024,22.536,11.065,22.582z"/>
			<path style="fill:#006CFF;" d="M22.127,21.348c0,0.358,0,0.716,0,1.046c-0.11,0.292-0.318,0.354-0.587,0.354
				c-3.33-0.005-6.661-0.004-9.991-0.004c-0.048,0-0.097-0.003-0.145,0.001c-0.144,0.01-0.25-0.062-0.339-0.162
				c-0.041-0.047-0.066-0.108-0.103-0.172c0-0.346,0-0.704,0-1.062c-0.307,0-0.615,0-0.93,0c0,0.32,0.002,0.619-0.001,0.918
				c-0.002,0.275,0.076,0.518,0.227,0.751c0.069,0.107,0.155,0.19,0.239,0.276c0.25,0.257,0.559,0.381,0.917,0.381
				c3.411,0,6.822-0.001,10.233,0.002c0.286,0,0.543-0.08,0.774-0.237c0.109-0.074,0.199-0.177,0.297-0.267
				c0.16-0.147,0.233-0.347,0.304-0.542c0.034-0.093,0.033-0.203,0.035-0.305c0.004-0.252,0.002-0.504,0.001-0.756
				c0-0.074-0.005-0.148-0.008-0.22C22.728,21.348,22.428,21.348,22.127,21.348z"/>
		</g>
		<g>
			<g>
				<rect x="10.962" y="18.081" style="fill:#023FFF;" width="11.166" height="3.146"/>
				<rect x="11.432" y="17.592" style="fill:#0500BF;" width="10.226" height="0.489"/>
				<ellipse style="fill:#FFFFFF;" cx="12.472" cy="19.711" rx="0.293" ry="0.238"/>
				<path style="fill:#EEB715;" d="M13.834,19.986c-0.187,0-0.339-0.123-0.339-0.275c0-0.152,0.152-0.275,0.339-0.275
					c0.187,0,0.339,0.123,0.339,0.275C14.173,19.863,14.021,19.986,13.834,19.986z M13.834,19.51c-0.136,0-0.247,0.09-0.247,0.201
					s0.111,0.201,0.247,0.201c0.136,0,0.247-0.09,0.247-0.201S13.971,19.51,13.834,19.51z"/>
				<g>
					<path style="fill:#EEB715;" d="M21.171,19.216h-4.782V18.82h4.782V19.216z M16.48,19.142h4.6v-0.248h-4.6V19.142z"/>
					<path style="fill:#EEB715;" d="M21.171,19.909h-4.782v-0.396h4.782V19.909z M16.48,19.835h4.6v-0.248h-4.6V19.835z"/>
					<path style="fill:#EEB715;" d="M21.171,20.603h-4.782v-0.396h4.782V20.603z M16.48,20.529h4.6v-0.248h-4.6V20.529z"/>
				</g>
			</g>
			<g>
				<rect x="10.962" y="14.446" style="fill:#023FFF;" width="11.166" height="3.146"/>
				<rect x="11.432" y="13.957" style="fill:#0500BF;" width="10.226" height="0.489"/>
				<ellipse style="fill:#FFFFFF;" cx="12.472" cy="16.076" rx="0.293" ry="0.238"/>
				<path style="fill:#EEB715;" d="M13.834,16.351c-0.187,0-0.339-0.123-0.339-0.275c0-0.152,0.152-0.275,0.339-0.275
					c0.187,0,0.339,0.123,0.339,0.275C14.173,16.228,14.021,16.351,13.834,16.351z M13.834,15.875c-0.136,0-0.247,0.09-0.247,0.201
					c0,0.111,0.111,0.201,0.247,0.201c0.136,0,0.247-0.09,0.247-0.201C14.082,15.965,13.971,15.875,13.834,15.875z"/>
				<g>
					<path style="fill:#EEB715;" d="M21.171,15.581h-4.782v-0.396h4.782V15.581z M16.48,15.507h4.6v-0.248h-4.6V15.507z"/>
					<path style="fill:#EEB715;" d="M21.171,16.274h-4.782v-0.396h4.782V16.274z M16.48,16.2h4.6v-0.248h-4.6V16.2z"/>
					<path style="fill:#EEB715;" d="M21.171,16.967h-4.782v-0.396h4.782V16.967z M16.48,16.893h4.6v-0.248h-4.6V16.893z"/>
				</g>
			</g>
			<g>
				<rect x="10.962" y="10.811" style="fill:#023FFF;" width="11.166" height="3.146"/>
				<path style="fill:#FFFFFF;" d="M12.765,12.441c0,0.131-0.131,0.238-0.293,0.238c-0.162,0-0.293-0.107-0.293-0.238
					c0-0.131,0.131-0.238,0.293-0.238C12.634,12.203,12.765,12.309,12.765,12.441z"/>
				<path style="fill:#EEB715;" d="M13.834,12.716c-0.187,0-0.339-0.123-0.339-0.275c0-0.152,0.152-0.275,0.339-0.275
					c0.187,0,0.339,0.123,0.339,0.275C14.173,12.593,14.021,12.716,13.834,12.716z M13.834,12.24c-0.136,0-0.247,0.09-0.247,0.201
					c0,0.111,0.111,0.201,0.247,0.201c0.136,0,0.247-0.09,0.247-0.201C14.082,12.33,13.971,12.24,13.834,12.24z"/>
				<g>
					<path style="fill:#EEB715;" d="M21.171,11.946h-4.782V11.55h4.782V11.946z M16.48,11.871h4.6v-0.248h-4.6V11.871z"/>
					<path style="fill:#EEB715;" d="M21.171,12.639h-4.782v-0.396h4.782V12.639z M16.48,12.565h4.6v-0.248h-4.6V12.565z"/>
					<path style="fill:#EEB715;" d="M21.171,13.332h-4.782v-0.396h4.782V13.332z M16.48,13.258h4.6V13.01h-4.6V13.258z"/>
				</g>
			</g>
		</g>
	</g>
</g>
</svg>
